<svg xmlns="http://www.w3.org/2000/svg" xmlns:xlink="http://www.w3.org/1999/xlink" width="500" zoomAndPan="magnify" viewBox="0 0 375 374.999991" height="500" preserveAspectRatio="xMidYMid meet" version="1.0"><defs><g/></defs><rect x="-37.5" width="450" fill="#ffffff" y="-37.499999" height="449.999989" fill-opacity="1"/><rect x="-37.5" width="450" fill="#ffffff" y="-37.499999" height="449.999989" fill-opacity="1"/><rect x="-37.5" width="450" fill="#000000" y="-37.499999" height="449.999989" fill-opacity="1"/><g fill="#ffffff" fill-opacity="1"><g transform="translate(44.833367, 188.204501)"><g><path d="M 41.984375 -41.6875 C 40.648438 -41.488281 39.671875 -41.144531 39.046875 -40.65625 C 38.421875 -40.175781 38 -39.410156 37.78125 -38.359375 C 37.5625 -37.304688 37.453125 -35.75 37.453125 -33.6875 L 37.453125 0.125 L 36 0.0625 L 34.359375 0.125 L 8.0625 -33.203125 L 8.0625 -9.9375 C 8.0625 -7.550781 8.179688 -5.800781 8.421875 -4.6875 C 8.660156 -3.582031 9.179688 -2.773438 9.984375 -2.265625 C 10.796875 -1.765625 12.113281 -1.414062 13.9375 -1.21875 L 13.9375 0 C 12.363281 -0.125 10.179688 -0.1875 7.390625 -0.1875 C 5.171875 -0.1875 3.414062 -0.125 2.125 0 L 2.125 -1.21875 C 3.457031 -1.414062 4.4375 -1.753906 5.0625 -2.234375 C 5.6875 -2.722656 6.109375 -3.492188 6.328125 -4.546875 C 6.554688 -5.597656 6.671875 -7.148438 6.671875 -9.203125 L 6.671875 -36.484375 C 6.671875 -38.015625 6.554688 -39.125 6.328125 -39.8125 C 6.109375 -40.5 5.6875 -40.960938 5.0625 -41.203125 C 4.4375 -41.441406 3.457031 -41.601562 2.125 -41.6875 L 2.125 -42.90625 C 3.414062 -42.78125 5.171875 -42.71875 7.390625 -42.71875 C 9.410156 -42.71875 11.148438 -42.78125 12.609375 -42.90625 L 36.046875 -14 L 36.046875 -32.96875 C 36.046875 -35.34375 35.925781 -37.085938 35.6875 -38.203125 C 35.445312 -39.316406 34.921875 -40.125 34.109375 -40.625 C 33.304688 -41.132812 31.992188 -41.488281 30.171875 -41.6875 L 30.171875 -42.90625 C 31.742188 -42.78125 33.925781 -42.71875 36.71875 -42.71875 C 38.976562 -42.71875 40.734375 -42.78125 41.984375 -42.90625 Z M 41.984375 -41.6875 "/></g></g></g><g fill="#ffffff" fill-opacity="1"><g transform="translate(88.574288, 188.204501)"><g><path d="M 35.265625 -9.203125 C 35.265625 -5.492188 35.40625 -2.425781 35.6875 0 C 32.9375 -0.125 28.3125 -0.1875 21.8125 -0.1875 C 13.007812 -0.1875 6.425781 -0.125 2.0625 0 L 2.0625 -1.21875 C 3.394531 -1.289062 4.375 -1.445312 5 -1.6875 C 5.625 -1.9375 6.046875 -2.40625 6.265625 -3.09375 C 6.492188 -3.78125 6.609375 -4.890625 6.609375 -6.421875 L 6.609375 -36.484375 C 6.609375 -38.015625 6.492188 -39.125 6.265625 -39.8125 C 6.046875 -40.5 5.625 -40.960938 5 -41.203125 C 4.375 -41.441406 3.394531 -41.601562 2.0625 -41.6875 L 2.0625 -42.90625 C 6.425781 -42.78125 13.007812 -42.71875 21.8125 -42.71875 C 27.75 -42.71875 31.972656 -42.78125 34.484375 -42.90625 C 34.191406 -39.550781 34.046875 -36.5625 34.046875 -33.9375 C 34.046875 -32.15625 34.109375 -30.78125 34.234375 -29.8125 L 32.84375 -29.8125 C 32.238281 -34.132812 31.144531 -37.160156 29.5625 -38.890625 C 27.988281 -40.628906 25.769531 -41.5 22.90625 -41.5 L 20.421875 -41.5 C 19.171875 -41.5 18.257812 -41.398438 17.6875 -41.203125 C 17.125 -41.003906 16.738281 -40.609375 16.53125 -40.015625 C 16.332031 -39.429688 16.234375 -38.492188 16.234375 -37.203125 L 16.234375 -22.171875 L 18.171875 -22.171875 C 20.316406 -22.171875 21.941406 -22.957031 23.046875 -24.53125 C 24.160156 -26.113281 24.941406 -27.992188 25.390625 -30.171875 L 26.78125 -30.171875 C 26.65625 -28.472656 26.59375 -26.578125 26.59375 -24.484375 L 26.59375 -21.578125 C 26.59375 -19.515625 26.71875 -16.644531 26.96875 -12.96875 L 25.578125 -12.96875 C 24.722656 -18.300781 22.253906 -20.96875 18.171875 -20.96875 L 16.234375 -20.96875 L 16.234375 -5.703125 C 16.234375 -4.398438 16.332031 -3.457031 16.53125 -2.875 C 16.738281 -2.289062 17.125 -1.894531 17.6875 -1.6875 C 18.257812 -1.488281 19.171875 -1.390625 20.421875 -1.390625 L 23.390625 -1.390625 C 26.253906 -1.390625 28.566406 -2.367188 30.328125 -4.328125 C 32.085938 -6.285156 33.328125 -9.609375 34.046875 -14.296875 L 35.453125 -14.296875 C 35.328125 -12.960938 35.265625 -11.265625 35.265625 -9.203125 Z M 35.265625 -9.203125 "/></g></g></g><g fill="#ffffff" fill-opacity="1"><g transform="translate(126.98391, 188.204501)"><g><path d="M 16.234375 -17.328125 L 16.234375 -6.78125 C 16.234375 -5.164062 16.40625 -3.984375 16.75 -3.234375 C 17.09375 -2.492188 17.695312 -2 18.5625 -1.75 C 19.4375 -1.507812 20.820312 -1.367188 22.71875 -1.328125 L 22.71875 0 C 17.75 -0.125 14.054688 -0.1875 11.640625 -0.1875 C 9.617188 -0.1875 7.070312 -0.144531 4 -0.0625 L 2.0625 0 L 2.0625 -1.21875 C 3.394531 -1.289062 4.375 -1.445312 5 -1.6875 C 5.625 -1.9375 6.046875 -2.40625 6.265625 -3.09375 C 6.492188 -3.78125 6.609375 -4.890625 6.609375 -6.421875 L 6.609375 -36.484375 C 6.609375 -38.015625 6.492188 -39.125 6.265625 -39.8125 C 6.046875 -40.5 5.625 -40.960938 5 -41.203125 C 4.375 -41.441406 3.394531 -41.601562 2.0625 -41.6875 L 2.0625 -42.90625 C 4.125 -42.78125 7.191406 -42.71875 11.265625 -42.71875 L 18 -42.78125 C 18.800781 -42.820312 19.726562 -42.84375 20.78125 -42.84375 C 26.238281 -42.84375 30.398438 -41.757812 33.265625 -39.59375 C 36.128906 -37.4375 37.5625 -34.539062 37.5625 -30.90625 C 37.5625 -28.675781 36.992188 -26.539062 35.859375 -24.5 C 34.734375 -22.46875 32.828125 -20.765625 30.140625 -19.390625 C 27.453125 -18.015625 23.890625 -17.328125 19.453125 -17.328125 Z M 20 -41.6875 C 18.90625 -41.6875 18.101562 -41.546875 17.59375 -41.265625 C 17.09375 -40.984375 16.738281 -40.476562 16.53125 -39.75 C 16.332031 -39.019531 16.234375 -37.929688 16.234375 -36.484375 L 16.234375 -18.546875 L 18.84375 -18.546875 C 22.113281 -18.546875 24.375 -19.59375 25.625 -21.6875 C 26.882812 -23.789062 27.515625 -26.640625 27.515625 -30.234375 C 27.515625 -34.148438 26.9375 -37.035156 25.78125 -38.890625 C 24.632812 -40.753906 22.707031 -41.6875 20 -41.6875 Z M 20 -41.6875 "/></g></g></g><g fill="#ffffff" fill-opacity="1"><g transform="translate(165.817603, 188.204501)"><g><path d="M 38.90625 -42.90625 C 38.625 -39.0625 38.484375 -35.625 38.484375 -32.59375 C 38.484375 -30.695312 38.539062 -29.164062 38.65625 -28 L 37.265625 -28 C 36.296875 -32.96875 34.972656 -36.457031 33.296875 -38.46875 C 31.617188 -40.488281 29.328125 -41.5 26.421875 -41.5 L 25.03125 -41.5 L 25.03125 -6.90625 C 25.03125 -5.207031 25.203125 -3.972656 25.546875 -3.203125 C 25.890625 -2.441406 26.492188 -1.925781 27.359375 -1.65625 C 28.222656 -1.394531 29.609375 -1.25 31.515625 -1.21875 L 31.515625 0 C 26.421875 -0.125 22.582031 -0.1875 20 -0.1875 C 17.445312 -0.1875 13.75 -0.125 8.90625 0 L 8.90625 -1.21875 C 10.800781 -1.25 12.179688 -1.394531 13.046875 -1.65625 C 13.921875 -1.925781 14.53125 -2.441406 14.875 -3.203125 C 15.21875 -3.972656 15.390625 -5.207031 15.390625 -6.90625 L 15.390625 -41.5 L 14.0625 -41.5 C 12.125 -41.5 10.476562 -41.078125 9.125 -40.234375 C 7.769531 -39.390625 6.609375 -37.984375 5.640625 -36.015625 C 4.671875 -34.054688 3.84375 -31.382812 3.15625 -28 L 1.75 -28 C 1.875 -29.164062 1.9375 -30.695312 1.9375 -32.59375 C 1.9375 -35.625 1.796875 -39.0625 1.515625 -42.90625 C 5.191406 -42.78125 11.429688 -42.71875 20.234375 -42.71875 C 29.046875 -42.71875 35.269531 -42.78125 38.90625 -42.90625 Z M 38.90625 -42.90625 "/></g></g></g><g fill="#ffffff" fill-opacity="1"><g transform="translate(206.287043, 188.204501)"><g><path d="M 40.65625 -41.6875 C 39.320312 -41.488281 38.34375 -41.144531 37.71875 -40.65625 C 37.09375 -40.175781 36.664062 -39.410156 36.4375 -38.359375 C 36.21875 -37.304688 36.109375 -35.75 36.109375 -33.6875 L 36.109375 -17.625 C 36.109375 -11.851562 35.28125 -7.570312 33.625 -4.78125 C 32.539062 -3.007812 30.96875 -1.628906 28.90625 -0.640625 C 26.84375 0.347656 24.316406 0.84375 21.328125 0.84375 C 16.640625 0.84375 13.003906 -0.164062 10.421875 -2.1875 C 8.566406 -3.675781 7.316406 -5.5625 6.671875 -7.84375 C 6.023438 -10.125 5.703125 -13.328125 5.703125 -17.453125 L 5.703125 -36.484375 C 5.703125 -38.015625 5.585938 -39.125 5.359375 -39.8125 C 5.140625 -40.5 4.71875 -40.960938 4.09375 -41.203125 C 3.46875 -41.441406 2.488281 -41.601562 1.15625 -41.6875 L 1.15625 -42.90625 C 3.207031 -42.78125 6.359375 -42.71875 10.609375 -42.71875 C 14.804688 -42.71875 18.015625 -42.78125 20.234375 -42.90625 L 20.234375 -41.6875 C 18.785156 -41.601562 17.726562 -41.441406 17.0625 -41.203125 C 16.394531 -40.960938 15.9375 -40.5 15.6875 -39.8125 C 15.445312 -39.125 15.328125 -38.015625 15.328125 -36.484375 L 15.328125 -13.640625 C 15.328125 -9.390625 15.941406 -6.265625 17.171875 -4.265625 C 18.410156 -2.265625 20.582031 -1.265625 23.6875 -1.265625 C 27.726562 -1.265625 30.578125 -2.628906 32.234375 -5.359375 C 33.890625 -8.085938 34.71875 -11.957031 34.71875 -16.96875 L 34.71875 -32.96875 C 34.71875 -35.3125 34.578125 -37.046875 34.296875 -38.171875 C 34.015625 -39.304688 33.46875 -40.125 32.65625 -40.625 C 31.851562 -41.132812 30.582031 -41.488281 28.84375 -41.6875 L 28.84375 -42.90625 C 30.375 -42.78125 32.554688 -42.71875 35.390625 -42.71875 C 37.648438 -42.71875 39.40625 -42.78125 40.65625 -42.90625 Z M 40.65625 -41.6875 "/></g></g></g><g fill="#ffffff" fill-opacity="1"><g transform="translate(248.028724, 188.204501)"><g><path d="M 41.984375 -41.6875 C 40.648438 -41.488281 39.671875 -41.144531 39.046875 -40.65625 C 38.421875 -40.175781 38 -39.410156 37.78125 -38.359375 C 37.5625 -37.304688 37.453125 -35.75 37.453125 -33.6875 L 37.453125 0.125 L 36 0.0625 L 34.359375 0.125 L 8.0625 -33.203125 L 8.0625 -9.9375 C 8.0625 -7.550781 8.179688 -5.800781 8.421875 -4.6875 C 8.660156 -3.582031 9.179688 -2.773438 9.984375 -2.265625 C 10.796875 -1.765625 12.113281 -1.414062 13.9375 -1.21875 L 13.9375 0 C 12.363281 -0.125 10.179688 -0.1875 7.390625 -0.1875 C 5.171875 -0.1875 3.414062 -0.125 2.125 0 L 2.125 -1.21875 C 3.457031 -1.414062 4.4375 -1.753906 5.0625 -2.234375 C 5.6875 -2.722656 6.109375 -3.492188 6.328125 -4.546875 C 6.554688 -5.597656 6.671875 -7.148438 6.671875 -9.203125 L 6.671875 -36.484375 C 6.671875 -38.015625 6.554688 -39.125 6.328125 -39.8125 C 6.109375 -40.5 5.6875 -40.960938 5.0625 -41.203125 C 4.4375 -41.441406 3.457031 -41.601562 2.125 -41.6875 L 2.125 -42.90625 C 3.414062 -42.78125 5.171875 -42.71875 7.390625 -42.71875 C 9.410156 -42.71875 11.148438 -42.78125 12.609375 -42.90625 L 36.046875 -14 L 36.046875 -32.96875 C 36.046875 -35.34375 35.925781 -37.085938 35.6875 -38.203125 C 35.445312 -39.316406 34.921875 -40.125 34.109375 -40.625 C 33.304688 -41.132812 31.992188 -41.488281 30.171875 -41.6875 L 30.171875 -42.90625 C 31.742188 -42.78125 33.925781 -42.71875 36.71875 -42.71875 C 38.976562 -42.71875 40.734375 -42.78125 41.984375 -42.90625 Z M 41.984375 -41.6875 "/></g></g></g><g fill="#ffffff" fill-opacity="1"><g transform="translate(291.769644, 188.204501)"><g><path d="M 35.265625 -9.203125 C 35.265625 -5.492188 35.40625 -2.425781 35.6875 0 C 32.9375 -0.125 28.3125 -0.1875 21.8125 -0.1875 C 13.007812 -0.1875 6.425781 -0.125 2.0625 0 L 2.0625 -1.21875 C 3.394531 -1.289062 4.375 -1.445312 5 -1.6875 C 5.625 -1.9375 6.046875 -2.40625 6.265625 -3.09375 C 6.492188 -3.78125 6.609375 -4.890625 6.609375 -6.421875 L 6.609375 -36.484375 C 6.609375 -38.015625 6.492188 -39.125 6.265625 -39.8125 C 6.046875 -40.5 5.625 -40.960938 5 -41.203125 C 4.375 -41.441406 3.394531 -41.601562 2.0625 -41.6875 L 2.0625 -42.90625 C 6.425781 -42.78125 13.007812 -42.71875 21.8125 -42.71875 C 27.75 -42.71875 31.972656 -42.78125 34.484375 -42.90625 C 34.191406 -39.550781 34.046875 -36.5625 34.046875 -33.9375 C 34.046875 -32.15625 34.109375 -30.78125 34.234375 -29.8125 L 32.84375 -29.8125 C 32.238281 -34.132812 31.144531 -37.160156 29.5625 -38.890625 C 27.988281 -40.628906 25.769531 -41.5 22.90625 -41.5 L 20.421875 -41.5 C 19.171875 -41.5 18.257812 -41.398438 17.6875 -41.203125 C 17.125 -41.003906 16.738281 -40.609375 16.53125 -40.015625 C 16.332031 -39.429688 16.234375 -38.492188 16.234375 -37.203125 L 16.234375 -22.171875 L 18.171875 -22.171875 C 20.316406 -22.171875 21.941406 -22.957031 23.046875 -24.53125 C 24.160156 -26.113281 24.941406 -27.992188 25.390625 -30.171875 L 26.78125 -30.171875 C 26.65625 -28.472656 26.59375 -26.578125 26.59375 -24.484375 L 26.59375 -21.578125 C 26.59375 -19.515625 26.71875 -16.644531 26.96875 -12.96875 L 25.578125 -12.96875 C 24.722656 -18.300781 22.253906 -20.96875 18.171875 -20.96875 L 16.234375 -20.96875 L 16.234375 -5.703125 C 16.234375 -4.398438 16.332031 -3.457031 16.53125 -2.875 C 16.738281 -2.289062 17.125 -1.894531 17.6875 -1.6875 C 18.257812 -1.488281 19.171875 -1.390625 20.421875 -1.390625 L 23.390625 -1.390625 C 26.253906 -1.390625 28.566406 -2.367188 30.328125 -4.328125 C 32.085938 -6.285156 33.328125 -9.609375 34.046875 -14.296875 L 35.453125 -14.296875 C 35.328125 -12.960938 35.265625 -11.265625 35.265625 -9.203125 Z M 35.265625 -9.203125 "/></g></g></g><g fill="#ffffff" fill-opacity="1"><g transform="translate(110.202119, 255.46203)"><g><path d="M 43.140625 -2.671875 C 42.046875 -1.410156 40.875 -0.507812 39.625 0.03125 C 38.375 0.570312 36.859375 0.84375 35.078125 0.84375 C 32.734375 0.84375 30.882812 0.347656 29.53125 -0.640625 C 28.1875 -1.628906 27.3125 -3.316406 26.90625 -5.703125 L 25.8125 -11.75 C 25.289062 -14.695312 24.65625 -16.867188 23.90625 -18.265625 C 23.15625 -19.660156 21.910156 -20.359375 20.171875 -20.359375 L 16.234375 -20.359375 L 16.234375 -6.421875 C 16.234375 -4.890625 16.34375 -3.78125 16.5625 -3.09375 C 16.789062 -2.40625 17.207031 -1.9375 17.8125 -1.6875 C 18.414062 -1.445312 19.40625 -1.289062 20.78125 -1.21875 L 20.78125 0 C 18.601562 -0.125 15.554688 -0.1875 11.640625 -0.1875 C 7.316406 -0.1875 4.125 -0.125 2.0625 0 L 2.0625 -1.21875 C 3.394531 -1.289062 4.375 -1.445312 5 -1.6875 C 5.625 -1.9375 6.046875 -2.40625 6.265625 -3.09375 C 6.492188 -3.78125 6.609375 -4.890625 6.609375 -6.421875 L 6.609375 -36.484375 C 6.609375 -38.015625 6.492188 -39.125 6.265625 -39.8125 C 6.046875 -40.5 5.625 -40.960938 5 -41.203125 C 4.375 -41.441406 3.394531 -41.601562 2.0625 -41.6875 L 2.0625 -42.90625 C 4.125 -42.78125 7.191406 -42.71875 11.265625 -42.71875 L 18 -42.78125 C 18.800781 -42.820312 19.726562 -42.84375 20.78125 -42.84375 C 26.351562 -42.84375 30.539062 -41.929688 33.34375 -40.109375 C 36.15625 -38.296875 37.5625 -35.691406 37.5625 -32.296875 C 37.5625 -29.429688 36.507812 -26.90625 34.40625 -24.71875 C 32.3125 -22.539062 28.84375 -21.171875 24 -20.609375 C 27.632812 -20.273438 30.335938 -19.484375 32.109375 -18.234375 C 33.890625 -16.984375 35.039062 -15.109375 35.5625 -12.609375 L 36.96875 -6.359375 C 37.289062 -4.742188 37.660156 -3.613281 38.078125 -2.96875 C 38.503906 -2.320312 39.101562 -2 39.875 -2 C 40.351562 -2.039062 40.765625 -2.160156 41.109375 -2.359375 C 41.453125 -2.566406 41.847656 -2.910156 42.296875 -3.390625 Z M 20 -41.6875 C 18.90625 -41.6875 18.101562 -41.546875 17.59375 -41.265625 C 17.09375 -40.984375 16.738281 -40.476562 16.53125 -39.75 C 16.332031 -39.019531 16.234375 -37.929688 16.234375 -36.484375 L 16.234375 -21.578125 L 18.84375 -21.578125 C 22.15625 -21.578125 24.425781 -22.453125 25.65625 -24.203125 C 26.894531 -25.960938 27.515625 -28.4375 27.515625 -31.625 C 27.515625 -34.9375 26.925781 -37.441406 25.75 -39.140625 C 24.582031 -40.835938 22.664062 -41.6875 20 -41.6875 Z M 20 -41.6875 "/></g></g></g><g fill="#ffffff" fill-opacity="1"><g transform="translate(152.125545, 255.46203)"><g><path d="M 35.265625 -9.203125 C 35.265625 -5.492188 35.40625 -2.425781 35.6875 0 C 32.9375 -0.125 28.3125 -0.1875 21.8125 -0.1875 C 13.007812 -0.1875 6.425781 -0.125 2.0625 0 L 2.0625 -1.21875 C 3.394531 -1.289062 4.375 -1.445312 5 -1.6875 C 5.625 -1.9375 6.046875 -2.40625 6.265625 -3.09375 C 6.492188 -3.78125 6.609375 -4.890625 6.609375 -6.421875 L 6.609375 -36.484375 C 6.609375 -38.015625 6.492188 -39.125 6.265625 -39.8125 C 6.046875 -40.5 5.625 -40.960938 5 -41.203125 C 4.375 -41.441406 3.394531 -41.601562 2.0625 -41.6875 L 2.0625 -42.90625 C 6.425781 -42.78125 13.007812 -42.71875 21.8125 -42.71875 C 27.75 -42.71875 31.972656 -42.78125 34.484375 -42.90625 C 34.191406 -39.550781 34.046875 -36.5625 34.046875 -33.9375 C 34.046875 -32.15625 34.109375 -30.78125 34.234375 -29.8125 L 32.84375 -29.8125 C 32.238281 -34.132812 31.144531 -37.160156 29.5625 -38.890625 C 27.988281 -40.628906 25.769531 -41.5 22.90625 -41.5 L 20.421875 -41.5 C 19.171875 -41.5 18.257812 -41.398438 17.6875 -41.203125 C 17.125 -41.003906 16.738281 -40.609375 16.53125 -40.015625 C 16.332031 -39.429688 16.234375 -38.492188 16.234375 -37.203125 L 16.234375 -22.171875 L 18.171875 -22.171875 C 20.316406 -22.171875 21.941406 -22.957031 23.046875 -24.53125 C 24.160156 -26.113281 24.941406 -27.992188 25.390625 -30.171875 L 26.78125 -30.171875 C 26.65625 -28.472656 26.59375 -26.578125 26.59375 -24.484375 L 26.59375 -21.578125 C 26.59375 -19.515625 26.71875 -16.644531 26.96875 -12.96875 L 25.578125 -12.96875 C 24.722656 -18.300781 22.253906 -20.96875 18.171875 -20.96875 L 16.234375 -20.96875 L 16.234375 -5.703125 C 16.234375 -4.398438 16.332031 -3.457031 16.53125 -2.875 C 16.738281 -2.289062 17.125 -1.894531 17.6875 -1.6875 C 18.257812 -1.488281 19.171875 -1.390625 20.421875 -1.390625 L 23.390625 -1.390625 C 26.253906 -1.390625 28.566406 -2.367188 30.328125 -4.328125 C 32.085938 -6.285156 33.328125 -9.609375 34.046875 -14.296875 L 35.453125 -14.296875 C 35.328125 -12.960938 35.265625 -11.265625 35.265625 -9.203125 Z M 35.265625 -9.203125 "/></g></g></g><g fill="#ffffff" fill-opacity="1"><g transform="translate(190.535168, 255.46203)"><g><path d="M 35.265625 -9.203125 C 35.265625 -5.492188 35.40625 -2.425781 35.6875 0 C 32.9375 -0.125 28.3125 -0.1875 21.8125 -0.1875 C 13.007812 -0.1875 6.425781 -0.125 2.0625 0 L 2.0625 -1.21875 C 3.394531 -1.289062 4.375 -1.445312 5 -1.6875 C 5.625 -1.9375 6.046875 -2.40625 6.265625 -3.09375 C 6.492188 -3.78125 6.609375 -4.890625 6.609375 -6.421875 L 6.609375 -36.484375 C 6.609375 -38.015625 6.492188 -39.125 6.265625 -39.8125 C 6.046875 -40.5 5.625 -40.960938 5 -41.203125 C 4.375 -41.441406 3.394531 -41.601562 2.0625 -41.6875 L 2.0625 -42.90625 C 6.425781 -42.78125 13.007812 -42.71875 21.8125 -42.71875 C 27.75 -42.71875 31.972656 -42.78125 34.484375 -42.90625 C 34.191406 -39.550781 34.046875 -36.5625 34.046875 -33.9375 C 34.046875 -32.15625 34.109375 -30.78125 34.234375 -29.8125 L 32.84375 -29.8125 C 32.238281 -34.132812 31.144531 -37.160156 29.5625 -38.890625 C 27.988281 -40.628906 25.769531 -41.5 22.90625 -41.5 L 20.421875 -41.5 C 19.171875 -41.5 18.257812 -41.398438 17.6875 -41.203125 C 17.125 -41.003906 16.738281 -40.609375 16.53125 -40.015625 C 16.332031 -39.429688 16.234375 -38.492188 16.234375 -37.203125 L 16.234375 -22.171875 L 18.171875 -22.171875 C 20.316406 -22.171875 21.941406 -22.957031 23.046875 -24.53125 C 24.160156 -26.113281 24.941406 -27.992188 25.390625 -30.171875 L 26.78125 -30.171875 C 26.65625 -28.472656 26.59375 -26.578125 26.59375 -24.484375 L 26.59375 -21.578125 C 26.59375 -19.515625 26.71875 -16.644531 26.96875 -12.96875 L 25.578125 -12.96875 C 24.722656 -18.300781 22.253906 -20.96875 18.171875 -20.96875 L 16.234375 -20.96875 L 16.234375 -5.703125 C 16.234375 -4.398438 16.332031 -3.457031 16.53125 -2.875 C 16.738281 -2.289062 17.125 -1.894531 17.6875 -1.6875 C 18.257812 -1.488281 19.171875 -1.390625 20.421875 -1.390625 L 23.390625 -1.390625 C 26.253906 -1.390625 28.566406 -2.367188 30.328125 -4.328125 C 32.085938 -6.285156 33.328125 -9.609375 34.046875 -14.296875 L 35.453125 -14.296875 C 35.328125 -12.960938 35.265625 -11.265625 35.265625 -9.203125 Z M 35.265625 -9.203125 "/></g></g></g><g fill="#ffffff" fill-opacity="1"><g transform="translate(228.944791, 255.46203)"><g><path d="M 34.484375 -42.90625 C 34.191406 -39.46875 34.046875 -36.394531 34.046875 -33.6875 C 34.046875 -31.789062 34.109375 -30.253906 34.234375 -29.078125 L 32.84375 -29.078125 C 32.03125 -33.648438 30.816406 -36.863281 29.203125 -38.71875 C 27.585938 -40.570312 25.328125 -41.5 22.421875 -41.5 L 20.421875 -41.5 C 19.171875 -41.5 18.257812 -41.398438 17.6875 -41.203125 C 17.125 -41.003906 16.738281 -40.609375 16.53125 -40.015625 C 16.332031 -39.429688 16.234375 -38.492188 16.234375 -37.203125 L 16.234375 -21.9375 L 18.359375 -21.9375 C 20.503906 -21.9375 22.128906 -22.722656 23.234375 -24.296875 C 24.347656 -25.867188 25.128906 -27.75 25.578125 -29.9375 L 26.96875 -29.9375 C 26.84375 -28.238281 26.78125 -26.335938 26.78125 -24.234375 L 26.78125 -21.328125 C 26.78125 -19.265625 26.898438 -16.394531 27.140625 -12.71875 L 25.75 -12.71875 C 24.90625 -18.050781 22.441406 -20.71875 18.359375 -20.71875 L 16.234375 -20.71875 L 16.234375 -6.78125 C 16.234375 -5.164062 16.40625 -3.984375 16.75 -3.234375 C 17.09375 -2.492188 17.695312 -2 18.5625 -1.75 C 19.4375 -1.507812 20.820312 -1.367188 22.71875 -1.328125 L 22.71875 0 C 17.75 -0.125 14.054688 -0.1875 11.640625 -0.1875 C 9.617188 -0.1875 7.070312 -0.144531 4 -0.0625 L 2.0625 0 L 2.0625 -1.21875 C 3.394531 -1.289062 4.375 -1.445312 5 -1.6875 C 5.625 -1.9375 6.046875 -2.40625 6.265625 -3.09375 C 6.492188 -3.78125 6.609375 -4.890625 6.609375 -6.421875 L 6.609375 -36.484375 C 6.609375 -38.015625 6.492188 -39.125 6.265625 -39.8125 C 6.046875 -40.5 5.625 -40.960938 5 -41.203125 C 4.375 -41.441406 3.394531 -41.601562 2.0625 -41.6875 L 2.0625 -42.90625 C 6.425781 -42.78125 13.007812 -42.71875 21.8125 -42.71875 C 27.75 -42.71875 31.972656 -42.78125 34.484375 -42.90625 Z M 34.484375 -42.90625 "/></g></g></g><g fill="#ffffff" fill-opacity="1"><g transform="translate(159.809879, 117.921207)"><g><path d="M 25.15625 -27.625 C 25.90625 -27.625 26.503906 -27.40625 26.953125 -26.96875 C 27.398438 -26.53125 27.625 -26 27.625 -25.375 C 27.625 -24.0625 26.882812 -23.039062 25.40625 -22.3125 C 24.09375 -21.695312 22.300781 -21.390625 20.03125 -21.390625 C 19.644531 -21.390625 19.019531 -21.410156 18.15625 -21.453125 L 13.421875 -3.734375 C 13.253906 -3.085938 13.171875 -2.59375 13.171875 -2.25 C 13.171875 -1.695312 13.367188 -1.300781 13.765625 -1.0625 C 14.160156 -0.820312 14.851562 -0.679688 15.84375 -0.640625 L 15.71875 0 C 14.363281 -0.0625 12.375 -0.09375 9.75 -0.09375 C 7.195312 -0.09375 5.3125 -0.0625 4.09375 0 L 4.21875 -0.640625 C 5.144531 -0.679688 5.859375 -0.789062 6.359375 -0.96875 C 6.859375 -1.15625 7.253906 -1.457031 7.546875 -1.875 C 7.835938 -2.300781 8.09375 -2.921875 8.3125 -3.734375 L 13.171875 -21.9375 C 11.554688 -22.082031 10.269531 -22.15625 9.3125 -22.15625 C 7.53125 -22.15625 6.316406 -21.972656 5.671875 -21.609375 C 6.222656 -21.429688 6.679688 -21.113281 7.046875 -20.65625 C 7.410156 -20.195312 7.59375 -19.644531 7.59375 -19 C 7.59375 -18.25 7.359375 -17.609375 6.890625 -17.078125 C 6.421875 -16.554688 5.820312 -16.296875 5.09375 -16.296875 C 4.382812 -16.296875 3.816406 -16.535156 3.390625 -17.015625 C 2.972656 -17.503906 2.765625 -18.113281 2.765625 -18.84375 C 2.765625 -19.4375 2.929688 -20.015625 3.265625 -20.578125 C 3.597656 -21.140625 4.128906 -21.601562 4.859375 -21.96875 C 5.910156 -22.476562 7.347656 -22.734375 9.171875 -22.734375 C 10.585938 -22.734375 12.585938 -22.601562 15.171875 -22.34375 C 17.523438 -22.132812 19.238281 -22.03125 20.3125 -22.03125 C 21.757812 -22.03125 22.898438 -22.171875 23.734375 -22.453125 C 23.410156 -22.742188 23.140625 -23.109375 22.921875 -23.546875 C 22.710938 -23.992188 22.609375 -24.472656 22.609375 -24.984375 C 22.609375 -25.765625 22.835938 -26.398438 23.296875 -26.890625 C 23.753906 -27.378906 24.375 -27.625 25.15625 -27.625 Z M 25.15625 -27.625 "/></g></g></g><g fill="#ffffff" fill-opacity="1"><g transform="translate(181.735863, 117.921207)"><g><path d="M 16.90625 -5.21875 L 16.109375 -2.859375 C 15.328125 -0.648438 13.882812 0.453125 11.78125 0.453125 C 9.832031 0.453125 8.859375 -0.414062 8.859375 -2.15625 C 8.859375 -2.925781 9.019531 -3.765625 9.34375 -4.671875 L 12.203125 -13.359375 C 12.398438 -13.984375 12.5 -14.457031 12.5 -14.78125 C 12.5 -15.25 12.296875 -15.484375 11.890625 -15.484375 C 11.285156 -15.484375 10.566406 -14.925781 9.734375 -13.8125 C 8.910156 -12.695312 8.066406 -11.191406 7.203125 -9.296875 C 6.347656 -7.410156 5.566406 -5.351562 4.859375 -3.125 L 4.09375 -0.421875 C 4.070312 -0.398438 4.0625 -0.367188 4.0625 -0.328125 L 4.0625 -0.359375 L 3.96875 0 L -0.578125 0 L 5.796875 -21.484375 C 5.898438 -21.867188 5.953125 -22.164062 5.953125 -22.375 C 5.953125 -22.8125 5.785156 -23.125 5.453125 -23.3125 C 5.117188 -23.507812 4.554688 -23.609375 3.765625 -23.609375 L 3.96875 -24.28125 C 5.46875 -24.300781 6.8125 -24.414062 8 -24.625 C 9.195312 -24.84375 10.351562 -25.164062 11.46875 -25.59375 L 7.078125 -10.625 C 8.179688 -13.050781 9.265625 -14.734375 10.328125 -15.671875 C 11.390625 -16.617188 12.59375 -17.09375 13.9375 -17.09375 C 14.945312 -17.09375 15.6875 -16.863281 16.15625 -16.40625 C 16.632812 -15.945312 16.875 -15.320312 16.875 -14.53125 C 16.875 -13.84375 16.722656 -13.078125 16.421875 -12.234375 L 13.265625 -2.734375 C 13.140625 -2.347656 13.078125 -2.035156 13.078125 -1.796875 C 13.078125 -1.347656 13.289062 -1.125 13.71875 -1.125 C 14.425781 -1.125 15.09375 -1.972656 15.71875 -3.671875 L 16.296875 -5.21875 Z M 16.90625 -5.21875 "/></g></g></g><g fill="#ffffff" fill-opacity="1"><g transform="translate(200.088003, 117.921207)"><g><path d="M 15.078125 -14.5625 C 15.078125 -12.78125 14.078125 -11.222656 12.078125 -9.890625 C 10.078125 -8.554688 7.757812 -7.523438 5.125 -6.796875 C 4.988281 -6.066406 4.921875 -5.335938 4.921875 -4.609375 C 4.921875 -3.460938 5.128906 -2.65625 5.546875 -2.1875 C 5.972656 -1.71875 6.59375 -1.484375 7.40625 -1.484375 C 8.070312 -1.484375 8.820312 -1.691406 9.65625 -2.109375 C 10.5 -2.523438 11.316406 -3.195312 12.109375 -4.125 L 12.625 -3.859375 C 11.851562 -2.660156 10.816406 -1.640625 9.515625 -0.796875 C 8.210938 0.0351562 6.757812 0.453125 5.15625 0.453125 C 3.675781 0.453125 2.460938 0.0546875 1.515625 -0.734375 C 0.566406 -1.535156 0.09375 -2.65625 0.09375 -4.09375 C 0.09375 -6 0.609375 -7.972656 1.640625 -10.015625 C 2.671875 -12.054688 4.078125 -13.742188 5.859375 -15.078125 C 7.640625 -16.421875 9.59375 -17.09375 11.71875 -17.09375 C 12.707031 -17.09375 13.515625 -16.875 14.140625 -16.4375 C 14.765625 -16 15.078125 -15.375 15.078125 -14.5625 Z M 11.015625 -16.484375 C 10.390625 -16.484375 9.679688 -16.039062 8.890625 -15.15625 C 8.097656 -14.28125 7.367188 -13.140625 6.703125 -11.734375 C 6.035156 -10.328125 5.539062 -8.882812 5.21875 -7.40625 C 6.738281 -8.070312 7.921875 -8.789062 8.765625 -9.5625 C 9.617188 -10.332031 10.289062 -11.21875 10.78125 -12.21875 C 11.28125 -13.21875 11.53125 -14.285156 11.53125 -15.421875 C 11.53125 -15.828125 11.484375 -16.101562 11.390625 -16.25 C 11.304688 -16.40625 11.179688 -16.484375 11.015625 -16.484375 Z M 11.015625 -16.484375 "/></g></g></g><g fill="#ffffff" fill-opacity="1"><g transform="translate(189.170512, 292.623641)"><g/></g></g></svg>