<svg xmlns="http://www.w3.org/2000/svg" xmlns:xlink="http://www.w3.org/1999/xlink" width="500" zoomAndPan="magnify" viewBox="0 0 375 374.999991" height="500" preserveAspectRatio="xMidYMid meet" version="1.0"><defs><g/></defs><rect x="-37.5" width="450" fill="#ffffff" y="-37.499999" height="449.999989" fill-opacity="1"/><rect x="-37.5" width="450" fill="#ffffff" y="-37.499999" height="449.999989" fill-opacity="1"/><rect x="-37.5" width="450" fill="#000000" y="-37.499999" height="449.999989" fill-opacity="1"/><g fill="#ffffff" fill-opacity="1"><g transform="translate(90.803093, 188.204501)"><g><path d="M 38.71875 -4.296875 C 39.53125 -3.128906 40.175781 -2.34375 40.65625 -1.9375 C 41.144531 -1.53125 41.789062 -1.304688 42.59375 -1.265625 L 42.59375 0 C 38.394531 -0.164062 35.628906 -0.25 34.296875 -0.25 C 33.003906 -0.25 30.175781 -0.1875 25.8125 -0.0625 C 25.488281 -0.0195312 25.066406 0 24.546875 0 L 24.546875 -1.265625 C 25.992188 -1.265625 27.019531 -1.335938 27.625 -1.484375 C 28.238281 -1.628906 28.546875 -1.898438 28.546875 -2.296875 C 28.546875 -2.585938 28.398438 -2.929688 28.109375 -3.328125 L 17.9375 -18.296875 L 13.09375 -11.6875 C 11.226562 -9.1875 10.296875 -7.066406 10.296875 -5.328125 C 10.296875 -4.078125 10.75 -3.097656 11.65625 -2.390625 C 12.570312 -1.679688 13.835938 -1.289062 15.453125 -1.21875 L 15.453125 0 C 13.148438 -0.125 9.957031 -0.1875 5.875 -0.1875 C 3.445312 -0.1875 1.585938 -0.125 0.296875 0 L 0.296875 -1.21875 C 3.085938 -2.101562 6.019531 -4.566406 9.09375 -8.609375 L 17.140625 -19.453125 L 4.0625 -38.65625 C 3.25 -39.875 2.597656 -40.671875 2.109375 -41.046875 C 1.628906 -41.429688 0.988281 -41.644531 0.1875 -41.6875 L 0.1875 -42.96875 C 0.664062 -42.96875 1.066406 -42.945312 1.390625 -42.90625 C 5.265625 -42.78125 7.75 -42.71875 8.84375 -42.71875 C 12.363281 -42.71875 15.457031 -42.800781 18.125 -42.96875 L 18.125 -41.6875 C 16.75 -41.6875 15.753906 -41.59375 15.140625 -41.40625 C 14.535156 -41.226562 14.234375 -40.9375 14.234375 -40.53125 C 14.234375 -40.207031 14.394531 -39.828125 14.71875 -39.390625 L 23.75 -26.171875 L 28.234375 -32.234375 C 30.128906 -34.742188 31.078125 -36.785156 31.078125 -38.359375 C 31.078125 -39.367188 30.691406 -40.15625 29.921875 -40.71875 C 29.160156 -41.28125 28.070312 -41.601562 26.65625 -41.6875 L 26.65625 -42.90625 C 28.957031 -42.78125 31.503906 -42.71875 34.296875 -42.71875 C 36.722656 -42.71875 38.582031 -42.78125 39.875 -42.90625 L 39.875 -41.6875 C 38.582031 -41.320312 37.28125 -40.570312 35.96875 -39.4375 C 34.65625 -38.3125 33.410156 -36.941406 32.234375 -35.328125 L 24.546875 -25.03125 Z M 38.71875 -4.296875 "/></g></g></g><g fill="#ffffff" fill-opacity="1"><g transform="translate(132.665943, 188.204501)"><g><path d="M 24.0625 -43.75 C 26.476562 -43.75 28.535156 -43.40625 30.234375 -42.71875 C 31.929688 -42.03125 33.585938 -41.0625 35.203125 -39.8125 C 35.648438 -39.445312 36.035156 -39.265625 36.359375 -39.265625 C 37.160156 -39.265625 37.6875 -40.476562 37.9375 -42.90625 L 39.328125 -42.90625 C 39.160156 -40.15625 39.078125 -35.265625 39.078125 -28.234375 L 37.6875 -28.234375 C 37.320312 -31.222656 36.835938 -33.503906 36.234375 -35.078125 C 35.628906 -36.660156 34.597656 -38.035156 33.140625 -39.203125 C 32.128906 -40.171875 30.957031 -40.90625 29.625 -41.40625 C 28.289062 -41.914062 26.898438 -42.171875 25.453125 -42.171875 C 21.367188 -42.171875 18.335938 -40.179688 16.359375 -36.203125 C 14.378906 -32.222656 13.390625 -27.265625 13.390625 -21.328125 C 13.390625 -15.429688 14.421875 -10.503906 16.484375 -6.546875 C 18.546875 -2.585938 21.613281 -0.609375 25.6875 -0.609375 C 27.0625 -0.609375 28.425781 -0.859375 29.78125 -1.359375 C 31.132812 -1.867188 32.273438 -2.609375 33.203125 -3.578125 C 34.703125 -4.703125 35.742188 -6.113281 36.328125 -7.8125 C 36.910156 -9.507812 37.363281 -11.992188 37.6875 -15.265625 L 39.078125 -15.265625 C 39.078125 -7.953125 39.160156 -2.863281 39.328125 0 L 37.9375 0 C 37.8125 -1.289062 37.632812 -2.207031 37.40625 -2.75 C 37.1875 -3.300781 36.878906 -3.578125 36.484375 -3.578125 C 36.160156 -3.578125 35.734375 -3.414062 35.203125 -3.09375 C 33.390625 -1.800781 31.65625 -0.820312 30 -0.15625 C 28.34375 0.507812 26.34375 0.84375 24 0.84375 C 19.71875 0.84375 15.96875 -0.0195312 12.75 -1.75 C 9.539062 -3.488281 7.046875 -6.003906 5.265625 -9.296875 C 3.492188 -12.585938 2.609375 -16.519531 2.609375 -21.09375 C 2.609375 -25.53125 3.515625 -29.460938 5.328125 -32.890625 C 7.148438 -36.328125 9.6875 -38.992188 12.9375 -40.890625 C 16.1875 -42.796875 19.894531 -43.75 24.0625 -43.75 Z M 24.0625 -43.75 "/></g></g></g><g fill="#ffffff" fill-opacity="1"><g transform="translate(175.376948, 188.204501)"><g><path d="M 36.484375 -42.71875 C 38.335938 -42.71875 39.867188 -42.78125 41.078125 -42.90625 L 41.078125 -41.6875 C 40.066406 -41.320312 39.078125 -40.550781 38.109375 -39.375 C 37.140625 -38.207031 36.273438 -36.578125 35.515625 -34.484375 L 22.71875 0.125 C 22.28125 0.0820312 21.578125 0.0625 20.609375 0.0625 C 19.671875 0.0625 18.984375 0.0820312 18.546875 0.125 L 3.09375 -37.8125 C 2.5625 -39.144531 1.953125 -40.113281 1.265625 -40.71875 C 0.585938 -41.320312 -0.078125 -41.644531 -0.734375 -41.6875 L -0.734375 -42.90625 C 1.691406 -42.78125 4.765625 -42.71875 8.484375 -42.71875 C 12.640625 -42.71875 15.707031 -42.78125 17.6875 -42.90625 L 17.6875 -41.6875 C 16.15625 -41.601562 15.066406 -41.421875 14.421875 -41.140625 C 13.773438 -40.859375 13.453125 -40.296875 13.453125 -39.453125 C 13.453125 -38.765625 13.691406 -37.8125 14.171875 -36.59375 L 24.84375 -9.453125 L 32.296875 -29.5625 C 33.429688 -32.675781 34 -35.144531 34 -36.96875 C 34 -38.582031 33.5625 -39.75 32.6875 -40.46875 C 31.820312 -41.195312 30.5625 -41.601562 28.90625 -41.6875 L 28.90625 -42.90625 C 31.65625 -42.78125 34.179688 -42.71875 36.484375 -42.71875 Z M 36.484375 -42.71875 "/></g></g></g><g fill="#ffffff" fill-opacity="1"><g transform="translate(215.846388, 188.204501)"><g><path d="M 20.78125 -41.6875 C 19.40625 -41.601562 18.414062 -41.441406 17.8125 -41.203125 C 17.207031 -40.960938 16.789062 -40.5 16.5625 -39.8125 C 16.34375 -39.125 16.234375 -38.015625 16.234375 -36.484375 L 16.234375 -6.421875 C 16.234375 -4.890625 16.34375 -3.78125 16.5625 -3.09375 C 16.789062 -2.40625 17.207031 -1.9375 17.8125 -1.6875 C 18.414062 -1.445312 19.40625 -1.289062 20.78125 -1.21875 L 20.78125 0 C 18.601562 -0.125 15.554688 -0.1875 11.640625 -0.1875 C 7.316406 -0.1875 4.125 -0.125 2.0625 0 L 2.0625 -1.21875 C 3.394531 -1.289062 4.375 -1.445312 5 -1.6875 C 5.625 -1.9375 6.046875 -2.40625 6.265625 -3.09375 C 6.492188 -3.78125 6.609375 -4.890625 6.609375 -6.421875 L 6.609375 -36.484375 C 6.609375 -38.015625 6.492188 -39.125 6.265625 -39.8125 C 6.046875 -40.5 5.625 -40.960938 5 -41.203125 C 4.375 -41.441406 3.394531 -41.601562 2.0625 -41.6875 L 2.0625 -42.90625 C 4.125 -42.78125 7.316406 -42.71875 11.640625 -42.71875 C 15.554688 -42.71875 18.601562 -42.78125 20.78125 -42.90625 Z M 20.78125 -41.6875 "/></g></g></g><g fill="#ffffff" fill-opacity="1"><g transform="translate(238.625595, 188.204501)"><g><path d="M 20.78125 -41.6875 C 19.40625 -41.601562 18.414062 -41.441406 17.8125 -41.203125 C 17.207031 -40.960938 16.789062 -40.5 16.5625 -39.8125 C 16.34375 -39.125 16.234375 -38.015625 16.234375 -36.484375 L 16.234375 -6.421875 C 16.234375 -4.890625 16.34375 -3.78125 16.5625 -3.09375 C 16.789062 -2.40625 17.207031 -1.9375 17.8125 -1.6875 C 18.414062 -1.445312 19.40625 -1.289062 20.78125 -1.21875 L 20.78125 0 C 18.601562 -0.125 15.554688 -0.1875 11.640625 -0.1875 C 7.316406 -0.1875 4.125 -0.125 2.0625 0 L 2.0625 -1.21875 C 3.394531 -1.289062 4.375 -1.445312 5 -1.6875 C 5.625 -1.9375 6.046875 -2.40625 6.265625 -3.09375 C 6.492188 -3.78125 6.609375 -4.890625 6.609375 -6.421875 L 6.609375 -36.484375 C 6.609375 -38.015625 6.492188 -39.125 6.265625 -39.8125 C 6.046875 -40.5 5.625 -40.960938 5 -41.203125 C 4.375 -41.441406 3.394531 -41.601562 2.0625 -41.6875 L 2.0625 -42.90625 C 4.125 -42.78125 7.316406 -42.71875 11.640625 -42.71875 C 15.554688 -42.71875 18.601562 -42.78125 20.78125 -42.90625 Z M 20.78125 -41.6875 "/></g></g></g><g fill="#ffffff" fill-opacity="1"><g transform="translate(261.404802, 188.204501)"><g><path d="M 20.78125 -41.6875 C 19.40625 -41.601562 18.414062 -41.441406 17.8125 -41.203125 C 17.207031 -40.960938 16.789062 -40.5 16.5625 -39.8125 C 16.34375 -39.125 16.234375 -38.015625 16.234375 -36.484375 L 16.234375 -6.421875 C 16.234375 -4.890625 16.34375 -3.78125 16.5625 -3.09375 C 16.789062 -2.40625 17.207031 -1.9375 17.8125 -1.6875 C 18.414062 -1.445312 19.40625 -1.289062 20.78125 -1.21875 L 20.78125 0 C 18.601562 -0.125 15.554688 -0.1875 11.640625 -0.1875 C 7.316406 -0.1875 4.125 -0.125 2.0625 0 L 2.0625 -1.21875 C 3.394531 -1.289062 4.375 -1.445312 5 -1.6875 C 5.625 -1.9375 6.046875 -2.40625 6.265625 -3.09375 C 6.492188 -3.78125 6.609375 -4.890625 6.609375 -6.421875 L 6.609375 -36.484375 C 6.609375 -38.015625 6.492188 -39.125 6.265625 -39.8125 C 6.046875 -40.5 5.625 -40.960938 5 -41.203125 C 4.375 -41.441406 3.394531 -41.601562 2.0625 -41.6875 L 2.0625 -42.90625 C 4.125 -42.78125 7.316406 -42.71875 11.640625 -42.71875 C 15.554688 -42.71875 18.601562 -42.78125 20.78125 -42.90625 Z M 20.78125 -41.6875 "/></g></g></g><g fill="#ffffff" fill-opacity="1"><g transform="translate(69.785115, 255.46203)"><g><path d="M 17.203125 -43.6875 C 19.304688 -43.6875 20.984375 -43.484375 22.234375 -43.078125 C 23.484375 -42.671875 24.757812 -42.085938 26.0625 -41.328125 C 26.5 -41.085938 26.890625 -40.882812 27.234375 -40.71875 C 27.578125 -40.5625 27.867188 -40.484375 28.109375 -40.484375 C 28.472656 -40.484375 28.753906 -40.691406 28.953125 -41.109375 C 29.160156 -41.535156 29.328125 -42.210938 29.453125 -43.140625 L 30.84375 -43.140625 C 30.644531 -40.429688 30.546875 -35.828125 30.546875 -29.328125 L 29.140625 -29.328125 C 28.984375 -31.503906 28.488281 -33.582031 27.65625 -35.5625 C 26.832031 -37.539062 25.660156 -39.144531 24.140625 -40.375 C 22.628906 -41.613281 20.863281 -42.234375 18.84375 -42.234375 C 16.863281 -42.234375 15.253906 -41.675781 14.015625 -40.5625 C 12.785156 -39.457031 12.171875 -37.953125 12.171875 -36.046875 C 12.171875 -34.640625 12.472656 -33.410156 13.078125 -32.359375 C 13.691406 -31.304688 14.539062 -30.34375 15.625 -29.46875 C 16.71875 -28.601562 18.394531 -27.425781 20.65625 -25.9375 L 22.59375 -24.59375 C 24.976562 -23.019531 26.859375 -21.644531 28.234375 -20.46875 C 29.609375 -19.300781 30.726562 -17.941406 31.59375 -16.390625 C 32.46875 -14.835938 32.90625 -13.03125 32.90625 -10.96875 C 32.90625 -8.382812 32.238281 -6.210938 30.90625 -4.453125 C 29.570312 -2.691406 27.765625 -1.367188 25.484375 -0.484375 C 23.203125 0.398438 20.664062 0.84375 17.875 0.84375 C 15.613281 0.84375 13.734375 0.640625 12.234375 0.234375 C 10.742188 -0.160156 9.375 -0.703125 8.125 -1.390625 C 7.226562 -1.953125 6.539062 -2.234375 6.0625 -2.234375 C 5.695312 -2.234375 5.410156 -2.019531 5.203125 -1.59375 C 5.003906 -1.175781 4.84375 -0.503906 4.71875 0.421875 L 3.328125 0.421875 C 3.492188 -2.117188 3.578125 -7.570312 3.578125 -15.9375 L 4.96875 -15.9375 C 5.25 -11.414062 6.257812 -7.75 8 -4.9375 C 9.738281 -2.132812 12.40625 -0.734375 16 -0.734375 C 18.175781 -0.734375 19.972656 -1.316406 21.390625 -2.484375 C 22.804688 -3.648438 23.515625 -5.328125 23.515625 -7.515625 C 23.515625 -9.773438 22.785156 -11.710938 21.328125 -13.328125 C 19.867188 -14.941406 17.566406 -16.757812 14.421875 -18.78125 C 11.992188 -20.351562 10.050781 -21.722656 8.59375 -22.890625 C 7.144531 -24.066406 5.957031 -25.453125 5.03125 -27.046875 C 4.101562 -28.648438 3.640625 -30.5 3.640625 -32.59375 C 3.640625 -35.019531 4.253906 -37.070312 5.484375 -38.75 C 6.710938 -40.425781 8.359375 -41.664062 10.421875 -42.46875 C 12.484375 -43.28125 14.742188 -43.6875 17.203125 -43.6875 Z M 17.203125 -43.6875 "/></g></g></g><g fill="#ffffff" fill-opacity="1"><g transform="translate(105.165581, 255.46203)"><g><path d="M 38.90625 -42.90625 C 38.625 -39.0625 38.484375 -35.625 38.484375 -32.59375 C 38.484375 -30.695312 38.539062 -29.164062 38.65625 -28 L 37.265625 -28 C 36.296875 -32.96875 34.972656 -36.457031 33.296875 -38.46875 C 31.617188 -40.488281 29.328125 -41.5 26.421875 -41.5 L 25.03125 -41.5 L 25.03125 -6.90625 C 25.03125 -5.207031 25.203125 -3.972656 25.546875 -3.203125 C 25.890625 -2.441406 26.492188 -1.925781 27.359375 -1.65625 C 28.222656 -1.394531 29.609375 -1.25 31.515625 -1.21875 L 31.515625 0 C 26.421875 -0.125 22.582031 -0.1875 20 -0.1875 C 17.445312 -0.1875 13.75 -0.125 8.90625 0 L 8.90625 -1.21875 C 10.800781 -1.25 12.179688 -1.394531 13.046875 -1.65625 C 13.921875 -1.925781 14.53125 -2.441406 14.875 -3.203125 C 15.21875 -3.972656 15.390625 -5.207031 15.390625 -6.90625 L 15.390625 -41.5 L 14.0625 -41.5 C 12.125 -41.5 10.476562 -41.078125 9.125 -40.234375 C 7.769531 -39.390625 6.609375 -37.984375 5.640625 -36.015625 C 4.671875 -34.054688 3.84375 -31.382812 3.15625 -28 L 1.75 -28 C 1.875 -29.164062 1.9375 -30.695312 1.9375 -32.59375 C 1.9375 -35.625 1.796875 -39.0625 1.515625 -42.90625 C 5.191406 -42.78125 11.429688 -42.71875 20.234375 -42.71875 C 29.046875 -42.71875 35.269531 -42.78125 38.90625 -42.90625 Z M 38.90625 -42.90625 "/></g></g></g><g fill="#ffffff" fill-opacity="1"><g transform="translate(145.635021, 255.46203)"><g><path d="M 40.65625 -41.6875 C 39.320312 -41.488281 38.34375 -41.144531 37.71875 -40.65625 C 37.09375 -40.175781 36.664062 -39.410156 36.4375 -38.359375 C 36.21875 -37.304688 36.109375 -35.75 36.109375 -33.6875 L 36.109375 -17.625 C 36.109375 -11.851562 35.28125 -7.570312 33.625 -4.78125 C 32.539062 -3.007812 30.96875 -1.628906 28.90625 -0.640625 C 26.84375 0.347656 24.316406 0.84375 21.328125 0.84375 C 16.640625 0.84375 13.003906 -0.164062 10.421875 -2.1875 C 8.566406 -3.675781 7.316406 -5.5625 6.671875 -7.84375 C 6.023438 -10.125 5.703125 -13.328125 5.703125 -17.453125 L 5.703125 -36.484375 C 5.703125 -38.015625 5.585938 -39.125 5.359375 -39.8125 C 5.140625 -40.5 4.71875 -40.960938 4.09375 -41.203125 C 3.46875 -41.441406 2.488281 -41.601562 1.15625 -41.6875 L 1.15625 -42.90625 C 3.207031 -42.78125 6.359375 -42.71875 10.609375 -42.71875 C 14.804688 -42.71875 18.015625 -42.78125 20.234375 -42.90625 L 20.234375 -41.6875 C 18.785156 -41.601562 17.726562 -41.441406 17.0625 -41.203125 C 16.394531 -40.960938 15.9375 -40.5 15.6875 -39.8125 C 15.445312 -39.125 15.328125 -38.015625 15.328125 -36.484375 L 15.328125 -13.640625 C 15.328125 -9.390625 15.941406 -6.265625 17.171875 -4.265625 C 18.410156 -2.265625 20.582031 -1.265625 23.6875 -1.265625 C 27.726562 -1.265625 30.578125 -2.628906 32.234375 -5.359375 C 33.890625 -8.085938 34.71875 -11.957031 34.71875 -16.96875 L 34.71875 -32.96875 C 34.71875 -35.3125 34.578125 -37.046875 34.296875 -38.171875 C 34.015625 -39.304688 33.46875 -40.125 32.65625 -40.625 C 31.851562 -41.132812 30.582031 -41.488281 28.84375 -41.6875 L 28.84375 -42.90625 C 30.375 -42.78125 32.554688 -42.71875 35.390625 -42.71875 C 37.648438 -42.71875 39.40625 -42.78125 40.65625 -42.90625 Z M 40.65625 -41.6875 "/></g></g></g><g fill="#ffffff" fill-opacity="1"><g transform="translate(187.376702, 255.46203)"><g><path d="M 20.78125 -42.90625 C 28.65625 -42.90625 34.550781 -41.113281 38.46875 -37.53125 C 42.394531 -33.957031 44.359375 -28.757812 44.359375 -21.9375 C 44.359375 -17.53125 43.394531 -13.679688 41.46875 -10.390625 C 39.550781 -7.097656 36.785156 -4.539062 33.171875 -2.71875 C 29.554688 -0.90625 25.242188 0 20.234375 0 L 16.484375 -0.0625 C 14.140625 -0.144531 12.441406 -0.1875 11.390625 -0.1875 C 7.234375 -0.1875 4.125 -0.125 2.0625 0 L 2.0625 -1.21875 C 3.394531 -1.289062 4.375 -1.445312 5 -1.6875 C 5.625 -1.9375 6.046875 -2.40625 6.265625 -3.09375 C 6.492188 -3.78125 6.609375 -4.890625 6.609375 -6.421875 L 6.609375 -36.484375 C 6.609375 -38.015625 6.492188 -39.125 6.265625 -39.8125 C 6.046875 -40.5 5.625 -40.960938 5 -41.203125 C 4.375 -41.441406 3.394531 -41.601562 2.0625 -41.6875 L 2.0625 -42.90625 C 3.757812 -42.78125 6.203125 -42.71875 9.390625 -42.71875 L 11.265625 -42.71875 L 13.6875 -42.78125 C 17 -42.863281 19.363281 -42.90625 20.78125 -42.90625 Z M 20.71875 -41.8125 C 19.46875 -41.8125 18.53125 -41.671875 17.90625 -41.390625 C 17.28125 -41.109375 16.84375 -40.601562 16.59375 -39.875 C 16.351562 -39.144531 16.234375 -38.050781 16.234375 -36.59375 L 16.234375 -6.296875 C 16.234375 -4.847656 16.351562 -3.757812 16.59375 -3.03125 C 16.84375 -2.300781 17.28125 -1.796875 17.90625 -1.515625 C 18.53125 -1.234375 19.488281 -1.09375 20.78125 -1.09375 C 25.664062 -1.09375 29.140625 -2.796875 31.203125 -6.203125 C 33.265625 -9.617188 34.296875 -14.78125 34.296875 -21.6875 C 34.296875 -28.59375 33.234375 -33.671875 31.109375 -36.921875 C 28.992188 -40.179688 25.53125 -41.8125 20.71875 -41.8125 Z M 20.71875 -41.8125 "/></g></g></g><g fill="#ffffff" fill-opacity="1"><g transform="translate(234.389103, 255.46203)"><g><path d="M 20.78125 -41.6875 C 19.40625 -41.601562 18.414062 -41.441406 17.8125 -41.203125 C 17.207031 -40.960938 16.789062 -40.5 16.5625 -39.8125 C 16.34375 -39.125 16.234375 -38.015625 16.234375 -36.484375 L 16.234375 -6.421875 C 16.234375 -4.890625 16.34375 -3.78125 16.5625 -3.09375 C 16.789062 -2.40625 17.207031 -1.9375 17.8125 -1.6875 C 18.414062 -1.445312 19.40625 -1.289062 20.78125 -1.21875 L 20.78125 0 C 18.601562 -0.125 15.554688 -0.1875 11.640625 -0.1875 C 7.316406 -0.1875 4.125 -0.125 2.0625 0 L 2.0625 -1.21875 C 3.394531 -1.289062 4.375 -1.445312 5 -1.6875 C 5.625 -1.9375 6.046875 -2.40625 6.265625 -3.09375 C 6.492188 -3.78125 6.609375 -4.890625 6.609375 -6.421875 L 6.609375 -36.484375 C 6.609375 -38.015625 6.492188 -39.125 6.265625 -39.8125 C 6.046875 -40.5 5.625 -40.960938 5 -41.203125 C 4.375 -41.441406 3.394531 -41.601562 2.0625 -41.6875 L 2.0625 -42.90625 C 4.125 -42.78125 7.316406 -42.71875 11.640625 -42.71875 C 15.554688 -42.71875 18.601562 -42.78125 20.78125 -42.90625 Z M 20.78125 -41.6875 "/></g></g></g><g fill="#ffffff" fill-opacity="1"><g transform="translate(257.16831, 255.46203)"><g><path d="M 24.0625 -43.75 C 28.34375 -43.75 32.085938 -42.878906 35.296875 -41.140625 C 38.503906 -39.398438 41 -36.882812 42.78125 -33.59375 C 44.5625 -30.300781 45.453125 -26.375 45.453125 -21.8125 C 45.453125 -17.375 44.539062 -13.4375 42.71875 -10 C 40.894531 -6.5625 38.359375 -3.894531 35.109375 -2 C 31.859375 -0.101562 28.15625 0.84375 24 0.84375 C 19.71875 0.84375 15.96875 -0.0195312 12.75 -1.75 C 9.539062 -3.488281 7.046875 -6.003906 5.265625 -9.296875 C 3.492188 -12.585938 2.609375 -16.519531 2.609375 -21.09375 C 2.609375 -25.53125 3.515625 -29.460938 5.328125 -32.890625 C 7.148438 -36.328125 9.6875 -38.992188 12.9375 -40.890625 C 16.1875 -42.796875 19.894531 -43.75 24.0625 -43.75 Z M 23.8125 -42.65625 C 21.59375 -42.65625 19.632812 -41.753906 17.9375 -39.953125 C 16.238281 -38.160156 14.9375 -35.644531 14.03125 -32.40625 C 13.125 -29.175781 12.671875 -25.484375 12.671875 -21.328125 C 12.671875 -17.128906 13.179688 -13.429688 14.203125 -10.234375 C 15.234375 -7.046875 16.628906 -4.582031 18.390625 -2.84375 C 20.148438 -1.113281 22.097656 -0.25 24.234375 -0.25 C 26.453125 -0.25 28.410156 -1.144531 30.109375 -2.9375 C 31.804688 -4.738281 33.109375 -7.253906 34.015625 -10.484375 C 34.929688 -13.710938 35.390625 -17.410156 35.390625 -21.578125 C 35.390625 -25.773438 34.875 -29.46875 33.84375 -32.65625 C 32.8125 -35.851562 31.414062 -38.316406 29.65625 -40.046875 C 27.90625 -41.785156 25.957031 -42.65625 23.8125 -42.65625 Z M 23.8125 -42.65625 "/></g></g></g><g fill="#ffffff" fill-opacity="1"><g transform="translate(159.809879, 117.921207)"><g><path d="M 25.15625 -27.625 C 25.90625 -27.625 26.503906 -27.40625 26.953125 -26.96875 C 27.398438 -26.53125 27.625 -26 27.625 -25.375 C 27.625 -24.0625 26.882812 -23.039062 25.40625 -22.3125 C 24.09375 -21.695312 22.300781 -21.390625 20.03125 -21.390625 C 19.644531 -21.390625 19.019531 -21.410156 18.15625 -21.453125 L 13.421875 -3.734375 C 13.253906 -3.085938 13.171875 -2.59375 13.171875 -2.25 C 13.171875 -1.695312 13.367188 -1.300781 13.765625 -1.0625 C 14.160156 -0.820312 14.851562 -0.679688 15.84375 -0.640625 L 15.71875 0 C 14.363281 -0.0625 12.375 -0.09375 9.75 -0.09375 C 7.195312 -0.09375 5.3125 -0.0625 4.09375 0 L 4.21875 -0.640625 C 5.144531 -0.679688 5.859375 -0.789062 6.359375 -0.96875 C 6.859375 -1.15625 7.253906 -1.457031 7.546875 -1.875 C 7.835938 -2.300781 8.09375 -2.921875 8.3125 -3.734375 L 13.171875 -21.9375 C 11.554688 -22.082031 10.269531 -22.15625 9.3125 -22.15625 C 7.53125 -22.15625 6.316406 -21.972656 5.671875 -21.609375 C 6.222656 -21.429688 6.679688 -21.113281 7.046875 -20.65625 C 7.410156 -20.195312 7.59375 -19.644531 7.59375 -19 C 7.59375 -18.25 7.359375 -17.609375 6.890625 -17.078125 C 6.421875 -16.554688 5.820312 -16.296875 5.09375 -16.296875 C 4.382812 -16.296875 3.816406 -16.535156 3.390625 -17.015625 C 2.972656 -17.503906 2.765625 -18.113281 2.765625 -18.84375 C 2.765625 -19.4375 2.929688 -20.015625 3.265625 -20.578125 C 3.597656 -21.140625 4.128906 -21.601562 4.859375 -21.96875 C 5.910156 -22.476562 7.347656 -22.734375 9.171875 -22.734375 C 10.585938 -22.734375 12.585938 -22.601562 15.171875 -22.34375 C 17.523438 -22.132812 19.238281 -22.03125 20.3125 -22.03125 C 21.757812 -22.03125 22.898438 -22.171875 23.734375 -22.453125 C 23.410156 -22.742188 23.140625 -23.109375 22.921875 -23.546875 C 22.710938 -23.992188 22.609375 -24.472656 22.609375 -24.984375 C 22.609375 -25.765625 22.835938 -26.398438 23.296875 -26.890625 C 23.753906 -27.378906 24.375 -27.625 25.15625 -27.625 Z M 25.15625 -27.625 "/></g></g></g><g fill="#ffffff" fill-opacity="1"><g transform="translate(181.735863, 117.921207)"><g><path d="M 16.90625 -5.21875 L 16.109375 -2.859375 C 15.328125 -0.648438 13.882812 0.453125 11.78125 0.453125 C 9.832031 0.453125 8.859375 -0.414062 8.859375 -2.15625 C 8.859375 -2.925781 9.019531 -3.765625 9.34375 -4.671875 L 12.203125 -13.359375 C 12.398438 -13.984375 12.5 -14.457031 12.5 -14.78125 C 12.5 -15.25 12.296875 -15.484375 11.890625 -15.484375 C 11.285156 -15.484375 10.566406 -14.925781 9.734375 -13.8125 C 8.910156 -12.695312 8.066406 -11.191406 7.203125 -9.296875 C 6.347656 -7.410156 5.566406 -5.351562 4.859375 -3.125 L 4.09375 -0.421875 C 4.070312 -0.398438 4.0625 -0.367188 4.0625 -0.328125 L 4.0625 -0.359375 L 3.96875 0 L -0.578125 0 L 5.796875 -21.484375 C 5.898438 -21.867188 5.953125 -22.164062 5.953125 -22.375 C 5.953125 -22.8125 5.785156 -23.125 5.453125 -23.3125 C 5.117188 -23.507812 4.554688 -23.609375 3.765625 -23.609375 L 3.96875 -24.28125 C 5.46875 -24.300781 6.8125 -24.414062 8 -24.625 C 9.195312 -24.84375 10.351562 -25.164062 11.46875 -25.59375 L 7.078125 -10.625 C 8.179688 -13.050781 9.265625 -14.734375 10.328125 -15.671875 C 11.390625 -16.617188 12.59375 -17.09375 13.9375 -17.09375 C 14.945312 -17.09375 15.6875 -16.863281 16.15625 -16.40625 C 16.632812 -15.945312 16.875 -15.320312 16.875 -14.53125 C 16.875 -13.84375 16.722656 -13.078125 16.421875 -12.234375 L 13.265625 -2.734375 C 13.140625 -2.347656 13.078125 -2.035156 13.078125 -1.796875 C 13.078125 -1.347656 13.289062 -1.125 13.71875 -1.125 C 14.425781 -1.125 15.09375 -1.972656 15.71875 -3.671875 L 16.296875 -5.21875 Z M 16.90625 -5.21875 "/></g></g></g><g fill="#ffffff" fill-opacity="1"><g transform="translate(200.088003, 117.921207)"><g><path d="M 15.078125 -14.5625 C 15.078125 -12.78125 14.078125 -11.222656 12.078125 -9.890625 C 10.078125 -8.554688 7.757812 -7.523438 5.125 -6.796875 C 4.988281 -6.066406 4.921875 -5.335938 4.921875 -4.609375 C 4.921875 -3.460938 5.128906 -2.65625 5.546875 -2.1875 C 5.972656 -1.71875 6.59375 -1.484375 7.40625 -1.484375 C 8.070312 -1.484375 8.820312 -1.691406 9.65625 -2.109375 C 10.5 -2.523438 11.316406 -3.195312 12.109375 -4.125 L 12.625 -3.859375 C 11.851562 -2.660156 10.816406 -1.640625 9.515625 -0.796875 C 8.210938 0.0351562 6.757812 0.453125 5.15625 0.453125 C 3.675781 0.453125 2.460938 0.0546875 1.515625 -0.734375 C 0.566406 -1.535156 0.09375 -2.65625 0.09375 -4.09375 C 0.09375 -6 0.609375 -7.972656 1.640625 -10.015625 C 2.671875 -12.054688 4.078125 -13.742188 5.859375 -15.078125 C 7.640625 -16.421875 9.59375 -17.09375 11.71875 -17.09375 C 12.707031 -17.09375 13.515625 -16.875 14.140625 -16.4375 C 14.765625 -16 15.078125 -15.375 15.078125 -14.5625 Z M 11.015625 -16.484375 C 10.390625 -16.484375 9.679688 -16.039062 8.890625 -15.15625 C 8.097656 -14.28125 7.367188 -13.140625 6.703125 -11.734375 C 6.035156 -10.328125 5.539062 -8.882812 5.21875 -7.40625 C 6.738281 -8.070312 7.921875 -8.789062 8.765625 -9.5625 C 9.617188 -10.332031 10.289062 -11.21875 10.78125 -12.21875 C 11.28125 -13.21875 11.53125 -14.285156 11.53125 -15.421875 C 11.53125 -15.828125 11.484375 -16.101562 11.390625 -16.25 C 11.304688 -16.40625 11.179688 -16.484375 11.015625 -16.484375 Z M 11.015625 -16.484375 "/></g></g></g><g fill="#ffffff" fill-opacity="1"><g transform="translate(189.170512, 292.623641)"><g/></g></g></svg>