<svg xmlns="http://www.w3.org/2000/svg" xmlns:xlink="http://www.w3.org/1999/xlink" width="500" zoomAndPan="magnify" viewBox="0 0 375 374.999991" height="500" preserveAspectRatio="xMidYMid meet" version="1.0"><defs><g/></defs><rect x="-37.5" width="450" fill="#ffffff" y="-37.499999" height="449.999989" fill-opacity="1"/><rect x="-37.5" width="450" fill="#ffffff" y="-37.499999" height="449.999989" fill-opacity="1"/><rect x="-37.5" width="450" fill="#000000" y="-37.499999" height="449.999989" fill-opacity="1"/><g fill="#ffffff" fill-opacity="1"><g transform="translate(33.50936, 185.509438)"><g><path d="M 32.78125 -42.78125 C 34.632812 -42.78125 36.171875 -42.84375 37.390625 -42.96875 L 37.390625 -41.75 C 35.523438 -40.976562 33.582031 -38.632812 31.5625 -34.71875 L 24.421875 -20.546875 L 24.421875 -6.421875 C 24.421875 -4.890625 24.53125 -3.78125 24.75 -3.09375 C 24.96875 -2.40625 25.378906 -1.9375 25.984375 -1.6875 C 26.597656 -1.445312 27.59375 -1.289062 28.96875 -1.21875 L 28.96875 0 C 26.78125 -0.125 23.664062 -0.1875 19.625 -0.1875 C 15.3125 -0.1875 12.179688 -0.125 10.234375 0 L 10.234375 -1.21875 C 11.566406 -1.289062 12.546875 -1.445312 13.171875 -1.6875 C 13.804688 -1.9375 14.234375 -2.40625 14.453125 -3.09375 C 14.671875 -3.78125 14.78125 -4.890625 14.78125 -6.421875 L 14.78125 -16.65625 L 3.09375 -38.296875 C 1.84375 -40.554688 0.671875 -41.6875 -0.421875 -41.6875 L -0.421875 -42.96875 C 1.347656 -42.757812 3.726562 -42.65625 6.71875 -42.65625 C 10.476562 -42.65625 14.28125 -42.757812 18.125 -42.96875 L 18.125 -41.6875 C 16.707031 -41.6875 15.582031 -41.554688 14.75 -41.296875 C 13.925781 -41.035156 13.515625 -40.5625 13.515625 -39.875 C 13.515625 -39.507812 13.65625 -39.0625 13.9375 -38.53125 L 23.140625 -20.78125 L 27.875 -30.234375 C 29.445312 -33.421875 30.234375 -35.925781 30.234375 -37.75 C 30.234375 -39.125 29.796875 -40.113281 28.921875 -40.71875 C 28.054688 -41.320312 26.816406 -41.664062 25.203125 -41.75 L 25.203125 -42.96875 C 27.953125 -42.84375 30.476562 -42.78125 32.78125 -42.78125 Z M 32.78125 -42.78125 "/></g></g></g><g fill="#ffffff" fill-opacity="1"><g transform="translate(71.252559, 185.509438)"><g><path d="M 37.015625 -5.09375 C 37.546875 -3.757812 38.15625 -2.785156 38.84375 -2.171875 C 39.53125 -1.566406 40.195312 -1.25 40.84375 -1.21875 L 40.84375 0 C 38.414062 -0.125 35.34375 -0.1875 31.625 -0.1875 C 27.507812 -0.1875 24.441406 -0.125 22.421875 0 L 22.421875 -1.21875 C 23.953125 -1.289062 25.039062 -1.476562 25.6875 -1.78125 C 26.332031 -2.082031 26.65625 -2.617188 26.65625 -3.390625 C 26.65625 -4.117188 26.414062 -5.085938 25.9375 -6.296875 L 22.296875 -16.234375 L 9.09375 -16.234375 L 7.515625 -12.0625 C 6.378906 -9.15625 5.8125 -6.910156 5.8125 -5.328125 C 5.8125 -3.835938 6.265625 -2.796875 7.171875 -2.203125 C 8.085938 -1.617188 9.429688 -1.289062 11.203125 -1.21875 L 11.203125 0 C 8.460938 -0.125 5.960938 -0.1875 3.703125 -0.1875 C 1.835938 -0.1875 0.300781 -0.125 -0.90625 0 L -0.90625 -1.21875 C 1.070312 -1.570312 2.804688 -3.691406 4.296875 -7.578125 L 18.125 -43.015625 C 18.5625 -42.984375 19.265625 -42.96875 20.234375 -42.96875 C 21.203125 -42.96875 21.890625 -42.984375 22.296875 -43.015625 Z M 21.875 -17.453125 L 15.875 -33.8125 L 9.578125 -17.453125 Z M 21.875 -17.453125 "/></g></g></g><g fill="#ffffff" fill-opacity="1"><g transform="translate(111.661422, 185.509438)"><g><path d="M 17.203125 -43.6875 C 19.304688 -43.6875 20.984375 -43.484375 22.234375 -43.078125 C 23.484375 -42.671875 24.757812 -42.085938 26.0625 -41.328125 C 26.5 -41.085938 26.890625 -40.882812 27.234375 -40.71875 C 27.578125 -40.5625 27.867188 -40.484375 28.109375 -40.484375 C 28.472656 -40.484375 28.753906 -40.691406 28.953125 -41.109375 C 29.160156 -41.535156 29.328125 -42.210938 29.453125 -43.140625 L 30.84375 -43.140625 C 30.644531 -40.429688 30.546875 -35.828125 30.546875 -29.328125 L 29.140625 -29.328125 C 28.984375 -31.503906 28.488281 -33.582031 27.65625 -35.5625 C 26.832031 -37.539062 25.660156 -39.144531 24.140625 -40.375 C 22.628906 -41.613281 20.863281 -42.234375 18.84375 -42.234375 C 16.863281 -42.234375 15.253906 -41.675781 14.015625 -40.5625 C 12.785156 -39.457031 12.171875 -37.953125 12.171875 -36.046875 C 12.171875 -34.640625 12.472656 -33.410156 13.078125 -32.359375 C 13.691406 -31.304688 14.539062 -30.34375 15.625 -29.46875 C 16.71875 -28.601562 18.394531 -27.425781 20.65625 -25.9375 L 22.59375 -24.59375 C 24.976562 -23.019531 26.859375 -21.644531 28.234375 -20.46875 C 29.609375 -19.300781 30.726562 -17.941406 31.59375 -16.390625 C 32.46875 -14.835938 32.90625 -13.03125 32.90625 -10.96875 C 32.90625 -8.382812 32.238281 -6.210938 30.90625 -4.453125 C 29.570312 -2.691406 27.765625 -1.367188 25.484375 -0.484375 C 23.203125 0.398438 20.664062 0.84375 17.875 0.84375 C 15.613281 0.84375 13.734375 0.640625 12.234375 0.234375 C 10.742188 -0.160156 9.375 -0.703125 8.125 -1.390625 C 7.226562 -1.953125 6.539062 -2.234375 6.0625 -2.234375 C 5.695312 -2.234375 5.410156 -2.019531 5.203125 -1.59375 C 5.003906 -1.175781 4.84375 -0.503906 4.71875 0.421875 L 3.328125 0.421875 C 3.492188 -2.117188 3.578125 -7.570312 3.578125 -15.9375 L 4.96875 -15.9375 C 5.25 -11.414062 6.257812 -7.75 8 -4.9375 C 9.738281 -2.132812 12.40625 -0.734375 16 -0.734375 C 18.175781 -0.734375 19.972656 -1.316406 21.390625 -2.484375 C 22.804688 -3.648438 23.515625 -5.328125 23.515625 -7.515625 C 23.515625 -9.773438 22.785156 -11.710938 21.328125 -13.328125 C 19.867188 -14.941406 17.566406 -16.757812 14.421875 -18.78125 C 11.992188 -20.351562 10.050781 -21.722656 8.59375 -22.890625 C 7.144531 -24.066406 5.957031 -25.453125 5.03125 -27.046875 C 4.101562 -28.648438 3.640625 -30.5 3.640625 -32.59375 C 3.640625 -35.019531 4.253906 -37.070312 5.484375 -38.75 C 6.710938 -40.425781 8.359375 -41.664062 10.421875 -42.46875 C 12.484375 -43.28125 14.742188 -43.6875 17.203125 -43.6875 Z M 17.203125 -43.6875 "/></g></g></g><g fill="#ffffff" fill-opacity="1"><g transform="translate(147.041888, 185.509438)"><g/></g></g><g fill="#ffffff" fill-opacity="1"><g transform="translate(161.157725, 185.509438)"><g><path d="M 54.171875 -41.6875 C 52.796875 -41.601562 51.804688 -41.441406 51.203125 -41.203125 C 50.597656 -40.960938 50.179688 -40.5 49.953125 -39.8125 C 49.734375 -39.125 49.625 -38.015625 49.625 -36.484375 L 49.625 -6.421875 C 49.625 -4.890625 49.734375 -3.78125 49.953125 -3.09375 C 50.179688 -2.40625 50.609375 -1.9375 51.234375 -1.6875 C 51.859375 -1.445312 52.835938 -1.289062 54.171875 -1.21875 L 54.171875 0 C 51.953125 -0.125 48.78125 -0.1875 44.65625 -0.1875 C 40.332031 -0.1875 37.140625 -0.125 35.078125 0 L 35.078125 -1.21875 C 36.535156 -1.289062 37.597656 -1.445312 38.265625 -1.6875 C 38.929688 -1.9375 39.382812 -2.40625 39.625 -3.09375 C 39.863281 -3.78125 39.984375 -4.890625 39.984375 -6.421875 L 39.984375 -38.109375 L 25.390625 0.0625 L 24.421875 0.0625 L 8.0625 -38.96875 L 8.0625 -9.9375 C 8.0625 -7.550781 8.179688 -5.800781 8.421875 -4.6875 C 8.660156 -3.582031 9.179688 -2.773438 9.984375 -2.265625 C 10.796875 -1.765625 12.113281 -1.414062 13.9375 -1.21875 L 13.9375 0 C 12.363281 -0.125 10.179688 -0.1875 7.390625 -0.1875 C 5.171875 -0.1875 3.414062 -0.125 2.125 0 L 2.125 -1.21875 C 3.457031 -1.414062 4.4375 -1.753906 5.0625 -2.234375 C 5.6875 -2.722656 6.109375 -3.492188 6.328125 -4.546875 C 6.554688 -5.597656 6.671875 -7.148438 6.671875 -9.203125 L 6.671875 -36.484375 C 6.671875 -38.015625 6.554688 -39.125 6.328125 -39.8125 C 6.109375 -40.5 5.6875 -40.960938 5.0625 -41.203125 C 4.4375 -41.441406 3.457031 -41.601562 2.125 -41.6875 L 2.125 -42.90625 C 3.414062 -42.78125 5.171875 -42.71875 7.390625 -42.71875 C 11.109375 -42.71875 14.300781 -42.78125 16.96875 -42.90625 L 29.203125 -13.390625 L 40.359375 -42.71875 L 44.65625 -42.71875 C 48.78125 -42.71875 51.953125 -42.78125 54.171875 -42.90625 Z M 54.171875 -41.6875 "/></g></g></g><g fill="#ffffff" fill-opacity="1"><g transform="translate(217.318159, 185.509438)"><g><path d="M 35.265625 -9.203125 C 35.265625 -5.492188 35.40625 -2.425781 35.6875 0 C 32.9375 -0.125 28.3125 -0.1875 21.8125 -0.1875 C 13.007812 -0.1875 6.425781 -0.125 2.0625 0 L 2.0625 -1.21875 C 3.394531 -1.289062 4.375 -1.445312 5 -1.6875 C 5.625 -1.9375 6.046875 -2.40625 6.265625 -3.09375 C 6.492188 -3.78125 6.609375 -4.890625 6.609375 -6.421875 L 6.609375 -36.484375 C 6.609375 -38.015625 6.492188 -39.125 6.265625 -39.8125 C 6.046875 -40.5 5.625 -40.960938 5 -41.203125 C 4.375 -41.441406 3.394531 -41.601562 2.0625 -41.6875 L 2.0625 -42.90625 C 6.425781 -42.78125 13.007812 -42.71875 21.8125 -42.71875 C 27.75 -42.71875 31.972656 -42.78125 34.484375 -42.90625 C 34.191406 -39.550781 34.046875 -36.5625 34.046875 -33.9375 C 34.046875 -32.15625 34.109375 -30.78125 34.234375 -29.8125 L 32.84375 -29.8125 C 32.238281 -34.132812 31.144531 -37.160156 29.5625 -38.890625 C 27.988281 -40.628906 25.769531 -41.5 22.90625 -41.5 L 20.421875 -41.5 C 19.171875 -41.5 18.257812 -41.398438 17.6875 -41.203125 C 17.125 -41.003906 16.738281 -40.609375 16.53125 -40.015625 C 16.332031 -39.429688 16.234375 -38.492188 16.234375 -37.203125 L 16.234375 -22.171875 L 18.171875 -22.171875 C 20.316406 -22.171875 21.941406 -22.957031 23.046875 -24.53125 C 24.160156 -26.113281 24.941406 -27.992188 25.390625 -30.171875 L 26.78125 -30.171875 C 26.65625 -28.472656 26.59375 -26.578125 26.59375 -24.484375 L 26.59375 -21.578125 C 26.59375 -19.515625 26.71875 -16.644531 26.96875 -12.96875 L 25.578125 -12.96875 C 24.722656 -18.300781 22.253906 -20.96875 18.171875 -20.96875 L 16.234375 -20.96875 L 16.234375 -5.703125 C 16.234375 -4.398438 16.332031 -3.457031 16.53125 -2.875 C 16.738281 -2.289062 17.125 -1.894531 17.6875 -1.6875 C 18.257812 -1.488281 19.171875 -1.390625 20.421875 -1.390625 L 23.390625 -1.390625 C 26.253906 -1.390625 28.566406 -2.367188 30.328125 -4.328125 C 32.085938 -6.285156 33.328125 -9.609375 34.046875 -14.296875 L 35.453125 -14.296875 C 35.328125 -12.960938 35.265625 -11.265625 35.265625 -9.203125 Z M 35.265625 -9.203125 "/></g></g></g><g fill="#ffffff" fill-opacity="1"><g transform="translate(255.727781, 185.509438)"><g><path d="M 41.984375 -41.6875 C 40.648438 -41.488281 39.671875 -41.144531 39.046875 -40.65625 C 38.421875 -40.175781 38 -39.410156 37.78125 -38.359375 C 37.5625 -37.304688 37.453125 -35.75 37.453125 -33.6875 L 37.453125 0.125 L 36 0.0625 L 34.359375 0.125 L 8.0625 -33.203125 L 8.0625 -9.9375 C 8.0625 -7.550781 8.179688 -5.800781 8.421875 -4.6875 C 8.660156 -3.582031 9.179688 -2.773438 9.984375 -2.265625 C 10.796875 -1.765625 12.113281 -1.414062 13.9375 -1.21875 L 13.9375 0 C 12.363281 -0.125 10.179688 -0.1875 7.390625 -0.1875 C 5.171875 -0.1875 3.414062 -0.125 2.125 0 L 2.125 -1.21875 C 3.457031 -1.414062 4.4375 -1.753906 5.0625 -2.234375 C 5.6875 -2.722656 6.109375 -3.492188 6.328125 -4.546875 C 6.554688 -5.597656 6.671875 -7.148438 6.671875 -9.203125 L 6.671875 -36.484375 C 6.671875 -38.015625 6.554688 -39.125 6.328125 -39.8125 C 6.109375 -40.5 5.6875 -40.960938 5.0625 -41.203125 C 4.4375 -41.441406 3.457031 -41.601562 2.125 -41.6875 L 2.125 -42.90625 C 3.414062 -42.78125 5.171875 -42.71875 7.390625 -42.71875 C 9.410156 -42.71875 11.148438 -42.78125 12.609375 -42.90625 L 36.046875 -14 L 36.046875 -32.96875 C 36.046875 -35.34375 35.925781 -37.085938 35.6875 -38.203125 C 35.445312 -39.316406 34.921875 -40.125 34.109375 -40.625 C 33.304688 -41.132812 31.992188 -41.488281 30.171875 -41.6875 L 30.171875 -42.90625 C 31.742188 -42.78125 33.925781 -42.71875 36.71875 -42.71875 C 38.976562 -42.71875 40.734375 -42.78125 41.984375 -42.90625 Z M 41.984375 -41.6875 "/></g></g></g><g fill="#ffffff" fill-opacity="1"><g transform="translate(299.468716, 185.509438)"><g><path d="M 37.015625 -5.09375 C 37.546875 -3.757812 38.15625 -2.785156 38.84375 -2.171875 C 39.53125 -1.566406 40.195312 -1.25 40.84375 -1.21875 L 40.84375 0 C 38.414062 -0.125 35.34375 -0.1875 31.625 -0.1875 C 27.507812 -0.1875 24.441406 -0.125 22.421875 0 L 22.421875 -1.21875 C 23.953125 -1.289062 25.039062 -1.476562 25.6875 -1.78125 C 26.332031 -2.082031 26.65625 -2.617188 26.65625 -3.390625 C 26.65625 -4.117188 26.414062 -5.085938 25.9375 -6.296875 L 22.296875 -16.234375 L 9.09375 -16.234375 L 7.515625 -12.0625 C 6.378906 -9.15625 5.8125 -6.910156 5.8125 -5.328125 C 5.8125 -3.835938 6.265625 -2.796875 7.171875 -2.203125 C 8.085938 -1.617188 9.429688 -1.289062 11.203125 -1.21875 L 11.203125 0 C 8.460938 -0.125 5.960938 -0.1875 3.703125 -0.1875 C 1.835938 -0.1875 0.300781 -0.125 -0.90625 0 L -0.90625 -1.21875 C 1.070312 -1.570312 2.804688 -3.691406 4.296875 -7.578125 L 18.125 -43.015625 C 18.5625 -42.984375 19.265625 -42.96875 20.234375 -42.96875 C 21.203125 -42.96875 21.890625 -42.984375 22.296875 -43.015625 Z M 21.875 -17.453125 L 15.875 -33.8125 L 9.578125 -17.453125 Z M 21.875 -17.453125 "/></g></g></g><g fill="#ffffff" fill-opacity="1"><g transform="translate(69.708566, 252.766967)"><g><path d="M 24.0625 -43.75 C 26.476562 -43.75 28.535156 -43.40625 30.234375 -42.71875 C 31.929688 -42.03125 33.585938 -41.0625 35.203125 -39.8125 C 35.648438 -39.445312 36.035156 -39.265625 36.359375 -39.265625 C 37.160156 -39.265625 37.6875 -40.476562 37.9375 -42.90625 L 39.328125 -42.90625 C 39.160156 -40.15625 39.078125 -35.265625 39.078125 -28.234375 L 37.6875 -28.234375 C 37.320312 -31.222656 36.835938 -33.503906 36.234375 -35.078125 C 35.628906 -36.660156 34.597656 -38.035156 33.140625 -39.203125 C 32.128906 -40.171875 30.957031 -40.90625 29.625 -41.40625 C 28.289062 -41.914062 26.898438 -42.171875 25.453125 -42.171875 C 21.367188 -42.171875 18.335938 -40.179688 16.359375 -36.203125 C 14.378906 -32.222656 13.390625 -27.265625 13.390625 -21.328125 C 13.390625 -15.429688 14.421875 -10.503906 16.484375 -6.546875 C 18.546875 -2.585938 21.613281 -0.609375 25.6875 -0.609375 C 27.0625 -0.609375 28.425781 -0.859375 29.78125 -1.359375 C 31.132812 -1.867188 32.273438 -2.609375 33.203125 -3.578125 C 34.703125 -4.703125 35.742188 -6.113281 36.328125 -7.8125 C 36.910156 -9.507812 37.363281 -11.992188 37.6875 -15.265625 L 39.078125 -15.265625 C 39.078125 -7.953125 39.160156 -2.863281 39.328125 0 L 37.9375 0 C 37.8125 -1.289062 37.632812 -2.207031 37.40625 -2.75 C 37.1875 -3.300781 36.878906 -3.578125 36.484375 -3.578125 C 36.160156 -3.578125 35.734375 -3.414062 35.203125 -3.09375 C 33.390625 -1.800781 31.65625 -0.820312 30 -0.15625 C 28.34375 0.507812 26.34375 0.84375 24 0.84375 C 19.71875 0.84375 15.96875 -0.0195312 12.75 -1.75 C 9.539062 -3.488281 7.046875 -6.003906 5.265625 -9.296875 C 3.492188 -12.585938 2.609375 -16.519531 2.609375 -21.09375 C 2.609375 -25.53125 3.515625 -29.460938 5.328125 -32.890625 C 7.148438 -36.328125 9.6875 -38.992188 12.9375 -40.890625 C 16.1875 -42.796875 19.894531 -43.75 24.0625 -43.75 Z M 24.0625 -43.75 "/></g></g></g><g fill="#ffffff" fill-opacity="1"><g transform="translate(112.419572, 252.766967)"><g><path d="M 32.78125 -42.78125 C 34.632812 -42.78125 36.171875 -42.84375 37.390625 -42.96875 L 37.390625 -41.75 C 35.523438 -40.976562 33.582031 -38.632812 31.5625 -34.71875 L 24.421875 -20.546875 L 24.421875 -6.421875 C 24.421875 -4.890625 24.53125 -3.78125 24.75 -3.09375 C 24.96875 -2.40625 25.378906 -1.9375 25.984375 -1.6875 C 26.597656 -1.445312 27.59375 -1.289062 28.96875 -1.21875 L 28.96875 0 C 26.78125 -0.125 23.664062 -0.1875 19.625 -0.1875 C 15.3125 -0.1875 12.179688 -0.125 10.234375 0 L 10.234375 -1.21875 C 11.566406 -1.289062 12.546875 -1.445312 13.171875 -1.6875 C 13.804688 -1.9375 14.234375 -2.40625 14.453125 -3.09375 C 14.671875 -3.78125 14.78125 -4.890625 14.78125 -6.421875 L 14.78125 -16.65625 L 3.09375 -38.296875 C 1.84375 -40.554688 0.671875 -41.6875 -0.421875 -41.6875 L -0.421875 -42.96875 C 1.347656 -42.757812 3.726562 -42.65625 6.71875 -42.65625 C 10.476562 -42.65625 14.28125 -42.757812 18.125 -42.96875 L 18.125 -41.6875 C 16.707031 -41.6875 15.582031 -41.554688 14.75 -41.296875 C 13.925781 -41.035156 13.515625 -40.5625 13.515625 -39.875 C 13.515625 -39.507812 13.65625 -39.0625 13.9375 -38.53125 L 23.140625 -20.78125 L 27.875 -30.234375 C 29.445312 -33.421875 30.234375 -35.925781 30.234375 -37.75 C 30.234375 -39.125 29.796875 -40.113281 28.921875 -40.71875 C 28.054688 -41.320312 26.816406 -41.664062 25.203125 -41.75 L 25.203125 -42.96875 C 27.953125 -42.84375 30.476562 -42.78125 32.78125 -42.78125 Z M 32.78125 -42.78125 "/></g></g></g><g fill="#ffffff" fill-opacity="1"><g transform="translate(150.162771, 252.766967)"><g><path d="M 24.0625 -43.75 C 26.476562 -43.75 28.535156 -43.40625 30.234375 -42.71875 C 31.929688 -42.03125 33.585938 -41.0625 35.203125 -39.8125 C 35.648438 -39.445312 36.035156 -39.265625 36.359375 -39.265625 C 37.160156 -39.265625 37.6875 -40.476562 37.9375 -42.90625 L 39.328125 -42.90625 C 39.160156 -40.15625 39.078125 -35.265625 39.078125 -28.234375 L 37.6875 -28.234375 C 37.320312 -31.222656 36.835938 -33.503906 36.234375 -35.078125 C 35.628906 -36.660156 34.597656 -38.035156 33.140625 -39.203125 C 32.128906 -40.171875 30.957031 -40.90625 29.625 -41.40625 C 28.289062 -41.914062 26.898438 -42.171875 25.453125 -42.171875 C 21.367188 -42.171875 18.335938 -40.179688 16.359375 -36.203125 C 14.378906 -32.222656 13.390625 -27.265625 13.390625 -21.328125 C 13.390625 -15.429688 14.421875 -10.503906 16.484375 -6.546875 C 18.546875 -2.585938 21.613281 -0.609375 25.6875 -0.609375 C 27.0625 -0.609375 28.425781 -0.859375 29.78125 -1.359375 C 31.132812 -1.867188 32.273438 -2.609375 33.203125 -3.578125 C 34.703125 -4.703125 35.742188 -6.113281 36.328125 -7.8125 C 36.910156 -9.507812 37.363281 -11.992188 37.6875 -15.265625 L 39.078125 -15.265625 C 39.078125 -7.953125 39.160156 -2.863281 39.328125 0 L 37.9375 0 C 37.8125 -1.289062 37.632812 -2.207031 37.40625 -2.75 C 37.1875 -3.300781 36.878906 -3.578125 36.484375 -3.578125 C 36.160156 -3.578125 35.734375 -3.414062 35.203125 -3.09375 C 33.390625 -1.800781 31.65625 -0.820312 30 -0.15625 C 28.34375 0.507812 26.34375 0.84375 24 0.84375 C 19.71875 0.84375 15.96875 -0.0195312 12.75 -1.75 C 9.539062 -3.488281 7.046875 -6.003906 5.265625 -9.296875 C 3.492188 -12.585938 2.609375 -16.519531 2.609375 -21.09375 C 2.609375 -25.53125 3.515625 -29.460938 5.328125 -32.890625 C 7.148438 -36.328125 9.6875 -38.992188 12.9375 -40.890625 C 16.1875 -42.796875 19.894531 -43.75 24.0625 -43.75 Z M 24.0625 -43.75 "/></g></g></g><g fill="#ffffff" fill-opacity="1"><g transform="translate(192.873776, 252.766967)"><g><path d="M 21.140625 -41.6875 C 19.691406 -41.601562 18.632812 -41.441406 17.96875 -41.203125 C 17.300781 -40.960938 16.84375 -40.5 16.59375 -39.8125 C 16.351562 -39.125 16.234375 -38.015625 16.234375 -36.484375 L 16.234375 -5.703125 C 16.234375 -4.398438 16.332031 -3.457031 16.53125 -2.875 C 16.738281 -2.289062 17.09375 -1.894531 17.59375 -1.6875 C 18.101562 -1.488281 18.925781 -1.390625 20.0625 -1.390625 L 23.03125 -1.390625 C 25.769531 -1.390625 28.140625 -2.617188 30.140625 -5.078125 C 32.140625 -7.546875 33.441406 -10.820312 34.046875 -14.90625 L 35.453125 -14.90625 C 35.328125 -13.53125 35.265625 -11.753906 35.265625 -9.578125 C 35.265625 -5.691406 35.40625 -2.5 35.6875 0 C 32.9375 -0.125 28.3125 -0.1875 21.8125 -0.1875 C 13.007812 -0.1875 6.425781 -0.125 2.0625 0 L 2.0625 -1.21875 C 3.394531 -1.289062 4.375 -1.445312 5 -1.6875 C 5.625 -1.9375 6.046875 -2.40625 6.265625 -3.09375 C 6.492188 -3.78125 6.609375 -4.890625 6.609375 -6.421875 L 6.609375 -36.484375 C 6.609375 -38.015625 6.492188 -39.125 6.265625 -39.8125 C 6.046875 -40.5 5.625 -40.960938 5 -41.203125 C 4.375 -41.441406 3.394531 -41.601562 2.0625 -41.6875 L 2.0625 -42.90625 C 4.125 -42.78125 7.316406 -42.71875 11.640625 -42.71875 C 15.753906 -42.71875 18.921875 -42.78125 21.140625 -42.90625 Z M 21.140625 -41.6875 "/></g></g></g><g fill="#ffffff" fill-opacity="1"><g transform="translate(229.88999, 252.766967)"><g><path d="M 35.265625 -9.203125 C 35.265625 -5.492188 35.40625 -2.425781 35.6875 0 C 32.9375 -0.125 28.3125 -0.1875 21.8125 -0.1875 C 13.007812 -0.1875 6.425781 -0.125 2.0625 0 L 2.0625 -1.21875 C 3.394531 -1.289062 4.375 -1.445312 5 -1.6875 C 5.625 -1.9375 6.046875 -2.40625 6.265625 -3.09375 C 6.492188 -3.78125 6.609375 -4.890625 6.609375 -6.421875 L 6.609375 -36.484375 C 6.609375 -38.015625 6.492188 -39.125 6.265625 -39.8125 C 6.046875 -40.5 5.625 -40.960938 5 -41.203125 C 4.375 -41.441406 3.394531 -41.601562 2.0625 -41.6875 L 2.0625 -42.90625 C 6.425781 -42.78125 13.007812 -42.71875 21.8125 -42.71875 C 27.75 -42.71875 31.972656 -42.78125 34.484375 -42.90625 C 34.191406 -39.550781 34.046875 -36.5625 34.046875 -33.9375 C 34.046875 -32.15625 34.109375 -30.78125 34.234375 -29.8125 L 32.84375 -29.8125 C 32.238281 -34.132812 31.144531 -37.160156 29.5625 -38.890625 C 27.988281 -40.628906 25.769531 -41.5 22.90625 -41.5 L 20.421875 -41.5 C 19.171875 -41.5 18.257812 -41.398438 17.6875 -41.203125 C 17.125 -41.003906 16.738281 -40.609375 16.53125 -40.015625 C 16.332031 -39.429688 16.234375 -38.492188 16.234375 -37.203125 L 16.234375 -22.171875 L 18.171875 -22.171875 C 20.316406 -22.171875 21.941406 -22.957031 23.046875 -24.53125 C 24.160156 -26.113281 24.941406 -27.992188 25.390625 -30.171875 L 26.78125 -30.171875 C 26.65625 -28.472656 26.59375 -26.578125 26.59375 -24.484375 L 26.59375 -21.578125 C 26.59375 -19.515625 26.71875 -16.644531 26.96875 -12.96875 L 25.578125 -12.96875 C 24.722656 -18.300781 22.253906 -20.96875 18.171875 -20.96875 L 16.234375 -20.96875 L 16.234375 -5.703125 C 16.234375 -4.398438 16.332031 -3.457031 16.53125 -2.875 C 16.738281 -2.289062 17.125 -1.894531 17.6875 -1.6875 C 18.257812 -1.488281 19.171875 -1.390625 20.421875 -1.390625 L 23.390625 -1.390625 C 26.253906 -1.390625 28.566406 -2.367188 30.328125 -4.328125 C 32.085938 -6.285156 33.328125 -9.609375 34.046875 -14.296875 L 35.453125 -14.296875 C 35.328125 -12.960938 35.265625 -11.265625 35.265625 -9.203125 Z M 35.265625 -9.203125 "/></g></g></g><g fill="#ffffff" fill-opacity="1"><g transform="translate(268.299613, 252.766967)"><g><path d="M 17.203125 -43.6875 C 19.304688 -43.6875 20.984375 -43.484375 22.234375 -43.078125 C 23.484375 -42.671875 24.757812 -42.085938 26.0625 -41.328125 C 26.5 -41.085938 26.890625 -40.882812 27.234375 -40.71875 C 27.578125 -40.5625 27.867188 -40.484375 28.109375 -40.484375 C 28.472656 -40.484375 28.753906 -40.691406 28.953125 -41.109375 C 29.160156 -41.535156 29.328125 -42.210938 29.453125 -43.140625 L 30.84375 -43.140625 C 30.644531 -40.429688 30.546875 -35.828125 30.546875 -29.328125 L 29.140625 -29.328125 C 28.984375 -31.503906 28.488281 -33.582031 27.65625 -35.5625 C 26.832031 -37.539062 25.660156 -39.144531 24.140625 -40.375 C 22.628906 -41.613281 20.863281 -42.234375 18.84375 -42.234375 C 16.863281 -42.234375 15.253906 -41.675781 14.015625 -40.5625 C 12.785156 -39.457031 12.171875 -37.953125 12.171875 -36.046875 C 12.171875 -34.640625 12.472656 -33.410156 13.078125 -32.359375 C 13.691406 -31.304688 14.539062 -30.34375 15.625 -29.46875 C 16.71875 -28.601562 18.394531 -27.425781 20.65625 -25.9375 L 22.59375 -24.59375 C 24.976562 -23.019531 26.859375 -21.644531 28.234375 -20.46875 C 29.609375 -19.300781 30.726562 -17.941406 31.59375 -16.390625 C 32.46875 -14.835938 32.90625 -13.03125 32.90625 -10.96875 C 32.90625 -8.382812 32.238281 -6.210938 30.90625 -4.453125 C 29.570312 -2.691406 27.765625 -1.367188 25.484375 -0.484375 C 23.203125 0.398438 20.664062 0.84375 17.875 0.84375 C 15.613281 0.84375 13.734375 0.640625 12.234375 0.234375 C 10.742188 -0.160156 9.375 -0.703125 8.125 -1.390625 C 7.226562 -1.953125 6.539062 -2.234375 6.0625 -2.234375 C 5.695312 -2.234375 5.410156 -2.019531 5.203125 -1.59375 C 5.003906 -1.175781 4.84375 -0.503906 4.71875 0.421875 L 3.328125 0.421875 C 3.492188 -2.117188 3.578125 -7.570312 3.578125 -15.9375 L 4.96875 -15.9375 C 5.25 -11.414062 6.257812 -7.75 8 -4.9375 C 9.738281 -2.132812 12.40625 -0.734375 16 -0.734375 C 18.175781 -0.734375 19.972656 -1.316406 21.390625 -2.484375 C 22.804688 -3.648438 23.515625 -5.328125 23.515625 -7.515625 C 23.515625 -9.773438 22.785156 -11.710938 21.328125 -13.328125 C 19.867188 -14.941406 17.566406 -16.757812 14.421875 -18.78125 C 11.992188 -20.351562 10.050781 -21.722656 8.59375 -22.890625 C 7.144531 -24.066406 5.957031 -25.453125 5.03125 -27.046875 C 4.101562 -28.648438 3.640625 -30.5 3.640625 -32.59375 C 3.640625 -35.019531 4.253906 -37.070312 5.484375 -38.75 C 6.710938 -40.425781 8.359375 -41.664062 10.421875 -42.46875 C 12.484375 -43.28125 14.742188 -43.6875 17.203125 -43.6875 Z M 17.203125 -43.6875 "/></g></g></g><g fill="#ffffff" fill-opacity="1"><g transform="translate(159.009063, 115.226136)"><g><path d="M 25.15625 -27.625 C 25.90625 -27.625 26.503906 -27.40625 26.953125 -26.96875 C 27.398438 -26.53125 27.625 -26 27.625 -25.375 C 27.625 -24.0625 26.882812 -23.039062 25.40625 -22.3125 C 24.09375 -21.695312 22.300781 -21.390625 20.03125 -21.390625 C 19.644531 -21.390625 19.019531 -21.410156 18.15625 -21.453125 L 13.421875 -3.734375 C 13.253906 -3.085938 13.171875 -2.59375 13.171875 -2.25 C 13.171875 -1.695312 13.367188 -1.300781 13.765625 -1.0625 C 14.160156 -0.820312 14.851562 -0.679688 15.84375 -0.640625 L 15.71875 0 C 14.363281 -0.0625 12.375 -0.09375 9.75 -0.09375 C 7.195312 -0.09375 5.3125 -0.0625 4.09375 0 L 4.21875 -0.640625 C 5.144531 -0.679688 5.859375 -0.789062 6.359375 -0.96875 C 6.859375 -1.15625 7.253906 -1.457031 7.546875 -1.875 C 7.835938 -2.300781 8.09375 -2.921875 8.3125 -3.734375 L 13.171875 -21.9375 C 11.554688 -22.082031 10.269531 -22.15625 9.3125 -22.15625 C 7.53125 -22.15625 6.316406 -21.972656 5.671875 -21.609375 C 6.222656 -21.429688 6.679688 -21.113281 7.046875 -20.65625 C 7.410156 -20.195312 7.59375 -19.644531 7.59375 -19 C 7.59375 -18.25 7.359375 -17.609375 6.890625 -17.078125 C 6.421875 -16.554688 5.820312 -16.296875 5.09375 -16.296875 C 4.382812 -16.296875 3.816406 -16.535156 3.390625 -17.015625 C 2.972656 -17.503906 2.765625 -18.113281 2.765625 -18.84375 C 2.765625 -19.4375 2.929688 -20.015625 3.265625 -20.578125 C 3.597656 -21.140625 4.128906 -21.601562 4.859375 -21.96875 C 5.910156 -22.476562 7.347656 -22.734375 9.171875 -22.734375 C 10.585938 -22.734375 12.585938 -22.601562 15.171875 -22.34375 C 17.523438 -22.132812 19.238281 -22.03125 20.3125 -22.03125 C 21.757812 -22.03125 22.898438 -22.171875 23.734375 -22.453125 C 23.410156 -22.742188 23.140625 -23.109375 22.921875 -23.546875 C 22.710938 -23.992188 22.609375 -24.472656 22.609375 -24.984375 C 22.609375 -25.765625 22.835938 -26.398438 23.296875 -26.890625 C 23.753906 -27.378906 24.375 -27.625 25.15625 -27.625 Z M 25.15625 -27.625 "/></g></g></g><g fill="#ffffff" fill-opacity="1"><g transform="translate(180.935046, 115.226136)"><g><path d="M 16.90625 -5.21875 L 16.109375 -2.859375 C 15.328125 -0.648438 13.882812 0.453125 11.78125 0.453125 C 9.832031 0.453125 8.859375 -0.414062 8.859375 -2.15625 C 8.859375 -2.925781 9.019531 -3.765625 9.34375 -4.671875 L 12.203125 -13.359375 C 12.398438 -13.984375 12.5 -14.457031 12.5 -14.78125 C 12.5 -15.25 12.296875 -15.484375 11.890625 -15.484375 C 11.285156 -15.484375 10.566406 -14.925781 9.734375 -13.8125 C 8.910156 -12.695312 8.066406 -11.191406 7.203125 -9.296875 C 6.347656 -7.410156 5.566406 -5.351562 4.859375 -3.125 L 4.09375 -0.421875 C 4.070312 -0.398438 4.0625 -0.367188 4.0625 -0.328125 L 4.0625 -0.359375 L 3.96875 0 L -0.578125 0 L 5.796875 -21.484375 C 5.898438 -21.867188 5.953125 -22.164062 5.953125 -22.375 C 5.953125 -22.8125 5.785156 -23.125 5.453125 -23.3125 C 5.117188 -23.507812 4.554688 -23.609375 3.765625 -23.609375 L 3.96875 -24.28125 C 5.46875 -24.300781 6.8125 -24.414062 8 -24.625 C 9.195312 -24.84375 10.351562 -25.164062 11.46875 -25.59375 L 7.078125 -10.625 C 8.179688 -13.050781 9.265625 -14.734375 10.328125 -15.671875 C 11.390625 -16.617188 12.59375 -17.09375 13.9375 -17.09375 C 14.945312 -17.09375 15.6875 -16.863281 16.15625 -16.40625 C 16.632812 -15.945312 16.875 -15.320312 16.875 -14.53125 C 16.875 -13.84375 16.722656 -13.078125 16.421875 -12.234375 L 13.265625 -2.734375 C 13.140625 -2.347656 13.078125 -2.035156 13.078125 -1.796875 C 13.078125 -1.347656 13.289062 -1.125 13.71875 -1.125 C 14.425781 -1.125 15.09375 -1.972656 15.71875 -3.671875 L 16.296875 -5.21875 Z M 16.90625 -5.21875 "/></g></g></g><g fill="#ffffff" fill-opacity="1"><g transform="translate(199.287186, 115.226136)"><g><path d="M 15.078125 -14.5625 C 15.078125 -12.78125 14.078125 -11.222656 12.078125 -9.890625 C 10.078125 -8.554688 7.757812 -7.523438 5.125 -6.796875 C 4.988281 -6.066406 4.921875 -5.335938 4.921875 -4.609375 C 4.921875 -3.460938 5.128906 -2.65625 5.546875 -2.1875 C 5.972656 -1.71875 6.59375 -1.484375 7.40625 -1.484375 C 8.070312 -1.484375 8.820312 -1.691406 9.65625 -2.109375 C 10.5 -2.523438 11.316406 -3.195312 12.109375 -4.125 L 12.625 -3.859375 C 11.851562 -2.660156 10.816406 -1.640625 9.515625 -0.796875 C 8.210938 0.0351562 6.757812 0.453125 5.15625 0.453125 C 3.675781 0.453125 2.460938 0.0546875 1.515625 -0.734375 C 0.566406 -1.535156 0.09375 -2.65625 0.09375 -4.09375 C 0.09375 -6 0.609375 -7.972656 1.640625 -10.015625 C 2.671875 -12.054688 4.078125 -13.742188 5.859375 -15.078125 C 7.640625 -16.421875 9.59375 -17.09375 11.71875 -17.09375 C 12.707031 -17.09375 13.515625 -16.875 14.140625 -16.4375 C 14.765625 -16 15.078125 -15.375 15.078125 -14.5625 Z M 11.015625 -16.484375 C 10.390625 -16.484375 9.679688 -16.039062 8.890625 -15.15625 C 8.097656 -14.28125 7.367188 -13.140625 6.703125 -11.734375 C 6.035156 -10.328125 5.539062 -8.882812 5.21875 -7.40625 C 6.738281 -8.070312 7.921875 -8.789062 8.765625 -9.5625 C 9.617188 -10.332031 10.289062 -11.21875 10.78125 -12.21875 C 11.28125 -13.21875 11.53125 -14.285156 11.53125 -15.421875 C 11.53125 -15.828125 11.484375 -16.101562 11.390625 -16.25 C 11.304688 -16.40625 11.179688 -16.484375 11.015625 -16.484375 Z M 11.015625 -16.484375 "/></g></g></g><g fill="#ffffff" fill-opacity="1"><g transform="translate(188.369695, 289.928563)"><g/></g></g></svg>